<svg width="150" height="49" viewBox="0 0 150 49" fill="none" xmlns="http://www.w3.org/2000/svg">
<g clip-path="url(#clip0_2_342)">
<mask id="mask0_2_342" style="mask-type:luminance" maskUnits="userSpaceOnUse" x="0" y="0" width="150" height="49">
<path d="M149.995 0.421875H0.00463867V48.3105H149.995V0.421875Z" fill="white"/>
</mask>
<g mask="url(#mask0_2_342)">
<path d="M61.3498 12.3013C61.2639 12.2149 61.1951 12.12 61.1263 12.0164C60.6018 11.2998 59.9053 10.73 59.0969 10.3675C58.8046 10.2379 58.5036 10.1343 58.1941 10.0566C57.9963 10.0049 57.7899 9.96167 57.5835 9.92718C57.4029 9.8926 57.2224 9.88398 57.0332 9.90123C57.0246 9.90123 57.0074 9.90985 57.0074 9.90985C56.9988 9.9358 57.0074 9.96167 57.0332 9.96167L57.2998 10.0739C58.495 10.566 59.5441 11.3344 60.3782 12.3272C60.8683 12.8884 61.2725 13.5272 61.582 14.2092C61.5992 14.2438 61.6079 14.2783 61.6164 14.3128C61.625 14.3387 61.6079 14.3647 61.5906 14.3733C61.582 14.3819 61.5648 14.3733 61.5562 14.3647C61.5304 14.356 61.5132 14.3387 61.496 14.3301C61.3928 14.2438 61.2725 14.1833 61.1349 14.1575C60.9114 14.1056 60.6792 14.0538 60.4555 14.0107C60.0256 13.9329 59.5871 13.8726 59.1572 13.7862C58.9164 13.7431 58.6842 13.6826 58.452 13.6049C57.8845 13.4063 57.3686 13.0782 56.9472 12.6552C56.6118 12.3185 56.3109 11.9473 56.0529 11.5415C55.9239 11.343 55.8121 11.1444 55.6831 10.9459C55.4682 10.5919 55.2532 10.2379 55.0383 9.87536C54.8061 9.48682 54.5482 9.11561 54.2557 8.77029C54.2386 8.75301 54.0923 8.58899 54.0666 8.55445C54.0408 8.51992 54.2643 8.60625 54.3762 8.64078C54.5395 8.69259 54.7029 8.72712 54.8749 8.76165C55.0469 8.78755 55.2188 8.78755 55.3822 8.77029C55.6487 8.72712 55.9068 8.67532 56.1734 8.60625C56.4313 8.53719 56.6893 8.46812 56.9472 8.40769C57.2224 8.34726 57.5061 8.32136 57.7813 8.32999C57.8157 8.32999 57.8501 8.33862 57.8931 8.33862C58.3058 8.35589 58.71 8.48538 59.0711 8.70122C59.2862 8.82208 59.4839 8.96885 59.6558 9.13288C59.8365 9.29692 59.9998 9.4782 60.146 9.67678C60.3782 9.97892 60.576 10.2984 60.748 10.6437C60.9715 11.084 61.1607 11.5329 61.3154 11.9905C61.3413 12.0336 61.4273 12.3186 61.3498 12.3013Z" fill="#99C459"/>
<path d="M70.3869 10.6955C70.3783 10.6437 70.3697 10.6005 70.3697 10.5488C70.3525 10.402 70.3181 10.2552 70.258 10.1257C70.2494 10.0998 70.2236 10.0912 70.1978 10.0912C70.1892 10.0912 70.1719 10.0998 70.1634 10.1084C70.1548 10.117 70.1462 10.1257 70.1375 10.1344C70.1204 10.1602 70.0946 10.1948 70.0774 10.2293C69.8796 10.5142 69.6044 10.73 69.2776 10.8509C69.1057 10.92 68.9337 10.9718 68.7617 11.0235C68.3662 11.1444 67.9707 11.2653 67.5751 11.3862C67.3601 11.4466 67.1537 11.5156 66.9474 11.602C66.6207 11.7315 66.3197 11.9473 66.0875 12.2149C65.9843 12.3358 65.8897 12.4653 65.8037 12.5948C65.6403 12.8624 65.5027 13.156 65.4082 13.4581C65.348 13.6481 65.3136 13.838 65.2792 14.0279C65.2706 14.1316 65.2706 14.3474 65.3222 14.2438C65.3824 14.1402 65.6059 13.7517 65.7521 13.5617C66.0703 13.1387 66.4744 12.7847 66.9302 12.5258C67.1365 12.4135 67.3429 12.3186 67.5665 12.2495C67.8244 12.1632 68.0739 12.0768 68.3318 11.9905C68.3662 11.9819 69.2088 11.6193 69.3379 11.533C69.4583 11.4466 69.6904 11.2653 69.6904 11.2653C69.6904 11.2653 69.4496 11.5416 69.3464 11.6365C69.2432 11.7315 68.5811 12.1028 68.5382 12.12C68.2974 12.2149 68.0652 12.3186 67.8244 12.4135C67.618 12.4998 67.4203 12.5948 67.2311 12.6984C67.0677 12.7847 66.913 12.8884 66.7754 13.0005C66.6292 13.1301 66.4831 13.2596 66.3541 13.4063C66.0187 13.7775 65.7349 14.1919 65.5114 14.6495C65.3738 14.9258 65.262 15.2107 65.1502 15.4956C65.1416 15.5215 65.0126 15.8409 65.004 15.8754C64.9955 15.91 64.9524 15.8928 64.9352 15.8668C64.9094 15.8064 64.8923 15.7546 64.8664 15.6942C64.8062 15.5301 64.7374 15.3747 64.6859 15.2107C64.5396 14.7877 64.4967 14.3301 64.5569 13.8812C64.5999 13.6135 64.6859 13.3545 64.8062 13.1128C64.8836 12.9574 64.9782 12.8107 65.0728 12.6725C65.219 12.4567 65.3738 12.2581 65.5371 12.0596C65.8295 11.697 66.1391 11.3516 66.44 10.9977C66.569 10.8509 66.698 10.7042 66.8184 10.5488C67.1623 10.1344 67.4461 9.67676 67.6697 9.18469C67.9019 8.67533 68.0481 8.1228 68.0996 7.56163C68.1083 7.49257 68.1168 7.41487 68.1254 7.34581C68.1512 7.13861 68.1512 6.93141 68.134 6.72421C68.1083 6.42205 68.0824 6.11988 68.0222 5.81772C67.9019 5.15296 67.6955 4.5141 67.4203 3.90114C67.0334 3.05509 66.5175 2.27809 65.8897 1.58743C65.5286 1.18167 65.1072 0.844972 64.6428 0.57734C64.5999 0.551442 64.5569 0.525542 64.5225 0.499642C64.5052 0.482375 64.4967 0.456476 64.4967 0.439209H64.2731C64.2903 0.499642 64.3161 0.551441 64.3333 0.611874C64.3505 0.68094 64.3591 0.758639 64.3763 0.827705C64.4364 1.1385 64.4451 1.46657 64.3935 1.77736C64.3333 2.13995 64.2301 2.49392 64.0839 2.83062C63.9378 3.16732 63.7658 3.49538 63.5766 3.80617C63.4047 4.09107 63.224 4.36733 63.052 4.6436C62.88 4.91987 62.6823 5.22203 62.5017 5.50692C62.2523 5.89542 62.0288 6.30981 61.831 6.72421C61.6763 7.04365 61.5558 7.38034 61.4612 7.71703C61.3236 8.2005 61.2635 8.70122 61.2807 9.20195C61.2892 9.37462 61.3151 9.54725 61.3409 9.71134C61.3839 10.0393 61.4527 10.3674 61.5387 10.6782C61.7708 11.4898 62.1406 12.2581 62.6307 12.9488C62.6909 13.0351 62.9403 13.3891 62.9575 13.3545C62.9747 13.32 62.8113 12.7416 62.7769 12.5775C62.6909 12.2063 62.6393 11.8351 62.6049 11.4552C62.5619 10.9804 62.5533 10.5056 62.5792 10.0221C62.6049 9.63365 62.6737 9.24512 62.7769 8.86526C62.9231 8.34726 63.1208 7.84654 63.3616 7.3717C63.482 7.13861 63.6024 6.91414 63.7228 6.68968C63.9378 6.27528 64.1613 5.86952 64.3763 5.45513C64.4795 5.2652 64.574 5.06663 64.6686 4.86806C64.9094 4.35007 65.0814 3.79754 65.1674 3.22775C65.1846 3.18458 65.2018 2.78746 65.2362 2.76155C65.2792 2.71839 65.305 3.17595 65.305 3.17595C65.3222 3.65941 65.262 4.14287 65.1244 4.60043C65.0126 4.98893 64.8664 5.36879 64.6945 5.73139C64.4193 6.31845 64.1527 6.90551 63.8775 7.49257C63.8087 7.64797 63.74 7.80337 63.6798 7.9674C63.5336 8.33863 63.4218 8.73576 63.353 9.13289C63.3015 9.42645 63.2671 9.71134 63.2584 10.0049C63.2498 10.3502 63.2584 10.6869 63.2757 11.0322C63.2757 11.084 63.2757 11.1272 63.2842 11.179C63.3272 11.4811 63.3444 11.7919 63.396 12.0854C63.4476 12.379 63.5079 12.7156 63.5852 13.0179C63.7228 13.5531 63.8948 14.0711 64.0925 14.5891C64.2903 15.0898 64.5052 15.5819 64.7289 16.074C64.746 16.1086 64.7633 16.1344 64.7804 16.1689C64.7977 16.2035 64.8321 16.2208 64.8664 16.2294C64.9352 16.2467 65.0126 16.2467 65.0814 16.2294C65.1588 16.1431 65.1674 15.9791 65.2018 15.8582C65.2448 15.72 65.305 15.5905 65.3824 15.4697C65.5458 15.2193 65.7865 15.0294 66.0616 14.9344C66.1648 14.8999 66.268 14.8654 66.3799 14.8481C66.569 14.8135 66.7668 14.7877 66.9646 14.7704C67.1709 14.7531 67.3773 14.7186 67.5837 14.7014C67.7385 14.684 67.8932 14.6495 68.048 14.6063C68.7016 14.4337 69.2776 14.0279 69.6647 13.4668C69.8194 13.2423 69.9484 13.0093 70.0516 12.7589C70.2665 12.2409 70.3869 11.6797 70.4127 11.1186C70.4127 10.989 70.4041 10.8423 70.3869 10.6955Z" fill="#99C459"/>
<path d="M25.638 26.3043C25.6896 26.7446 25.767 27.1763 25.8788 27.5993C26.068 28.3331 26.3345 29.0497 26.6957 29.7231C27.1428 30.5692 27.7103 31.3461 28.3811 32.0282C29.5419 33.2109 30.9263 34.1433 32.4569 34.7736C32.8525 34.9376 33.2567 35.0757 33.6608 35.1966C34.0564 35.3174 34.4605 35.4038 34.8646 35.4901C35.028 35.5246 35.2 35.5506 35.372 35.5764C35.4838 35.585 35.587 35.6023 35.6987 35.6282C35.9911 35.6627 36.2834 35.6973 36.5758 35.7146C37.0143 35.749 37.4529 35.749 37.8915 35.749H43.7903C43.9364 35.749 44.0827 35.749 44.2289 35.749C44.4954 35.7404 44.762 35.7232 45.0285 35.6714C45.4155 35.6023 45.7938 35.5074 46.1636 35.3778C47.8662 34.7562 49.2248 33.4354 49.8956 31.7519C50.1019 31.2511 50.2308 30.7245 50.2996 30.1892C50.3083 30.1116 50.3169 30.0425 50.3255 29.9734C50.3513 29.8008 50.3513 29.6281 50.3427 29.4555C50.3427 29.4382 50.2911 29.3864 50.2652 29.3864C50.1449 29.3691 50.0245 29.3691 49.8956 29.3778H38.76C38.588 29.3778 38.416 29.3691 38.244 29.3778C38.0118 29.3778 37.7796 29.3346 37.5561 29.3173C37.1863 29.2569 36.8166 29.1447 36.4726 28.9978C35.6729 28.6526 34.985 28.0827 34.4863 27.3662C34.0391 26.7446 33.7725 26.0108 33.7124 25.251C33.7124 25.1993 33.7037 25.1561 33.6952 25.1043C33.6693 24.9575 33.6608 24.8108 33.6693 24.664C33.678 24.3187 33.7124 23.982 33.7812 23.6452C33.8671 23.2222 34.022 22.8251 34.2455 22.4539C34.7012 21.6942 35.3806 21.0898 36.1888 20.7273C36.6446 20.52 37.1348 20.3905 37.6335 20.3387C37.6851 20.3387 37.7281 20.3301 37.7796 20.3215C37.9086 20.2956 38.0462 20.287 38.1838 20.287H42.0275C42.0619 20.287 42.1049 20.287 42.1393 20.2956C42.1651 20.3042 42.1737 20.3301 42.1651 20.356C42.1393 20.4337 42.0877 20.5114 42.0361 20.5719C40.8151 22.264 39.5855 23.9647 38.3558 25.6654L37.1949 27.2712C37.1605 27.3231 37.1261 27.3748 37.1004 27.4266C37.0917 27.4526 37.1004 27.4785 37.1175 27.4957C37.1348 27.5129 37.1605 27.5216 37.1863 27.5216C37.3068 27.5216 37.4271 27.5303 37.5561 27.5303H44.1171C44.461 27.5303 44.8049 27.5303 45.1403 27.5303C45.2005 27.5303 45.2607 27.5303 45.3209 27.5216C45.3553 27.5216 45.3897 27.5043 45.4155 27.4785C45.4499 27.4353 45.4928 27.3835 45.5272 27.3317L46.1034 26.4856L49.6204 21.3316C49.8439 21.0121 50.0589 20.684 50.2825 20.356C50.3083 20.3128 50.3255 20.2696 50.3255 20.2179C50.3255 20.192 50.3255 20.1661 50.3255 20.1402C50.3255 19.3459 50.3255 18.543 50.3255 17.7488C50.3255 17.5416 50.3083 17.3344 50.2652 17.1272C50.2223 16.8337 50.1363 16.5574 50.0245 16.2811C49.4742 14.9689 48.2617 14.071 46.8515 13.9328C46.6365 13.9156 46.413 13.907 46.1894 13.907H38.0635C37.6851 13.907 37.3068 13.9156 36.9284 13.9416C36.7736 13.9502 36.6102 13.9502 36.4554 13.9761C36.1803 14.0193 35.8965 14.0365 35.6213 14.0883C35.2601 14.1401 34.899 14.2177 34.5465 14.3128C33.291 14.6235 32.0872 15.1416 30.9951 15.8409C30.2212 16.333 29.4989 16.9028 28.8368 17.5416C28.338 18.0164 27.8823 18.5258 27.4696 19.0696C26.9794 19.7085 26.5667 20.4165 26.2485 21.1589C25.9992 21.7459 25.81 22.3503 25.6896 22.9805C25.6294 23.2913 25.5864 23.6108 25.552 23.9301C25.5348 24.1633 25.5262 24.3964 25.5176 24.6294C25.5176 24.6985 25.5176 24.7762 25.5176 24.8453C25.5692 25.3287 25.5606 25.8208 25.638 26.3043Z" fill="white"/>
<path d="M98.9859 26.2611C99.2015 27.7461 99.7341 29.1705 100.559 30.4224C101.247 31.4929 102.09 32.4598 103.054 33.2973C103.655 33.8238 104.309 34.2727 105.005 34.6526C105.857 35.1102 106.768 35.4296 107.722 35.6109C108.118 35.6887 108.522 35.7318 108.918 35.7577C109.115 35.7664 109.305 35.7664 109.502 35.7664C110.207 35.7664 110.921 35.7664 111.626 35.7664C111.738 35.7664 111.85 35.7664 111.953 35.7577C112.1 35.749 112.245 35.7232 112.384 35.68C112.993 35.5073 113.501 35.0843 113.785 34.5231C113.957 34.195 114.051 33.8325 114.051 33.4613C114.06 32.8742 114.051 32.2871 114.051 31.6915C114.051 31.5792 114.034 31.4756 114.017 31.3634C113.965 31.0008 113.819 30.6468 113.604 30.3533C113.209 29.8008 112.581 29.4468 111.901 29.395C111.79 29.3864 111.678 29.3864 111.575 29.3777C111.256 29.3691 110.938 29.3345 110.629 29.2741C110.268 29.205 109.924 29.0842 109.589 28.9288C108.935 28.618 108.367 28.1605 107.929 27.5906C107.517 27.0813 107.241 26.4856 107.103 25.8468C107.06 25.6568 107.034 25.4582 107.017 25.2683C107 25.1215 106.992 24.9747 106.992 24.828C106.992 24.4395 107.034 24.0424 107.12 23.6625C107.216 23.2308 107.378 22.8165 107.611 22.4452C107.972 21.8582 108.462 21.3661 109.047 21.0035C109.374 20.8049 109.718 20.6495 110.079 20.5286C110.474 20.4164 110.887 20.3387 111.3 20.3042C111.335 20.3042 111.377 20.3042 111.412 20.3042H111.781H115.367C115.453 20.3042 115.539 20.3042 115.625 20.3042C115.651 20.3042 115.676 20.3042 115.694 20.3214C115.719 20.3301 115.736 20.3473 115.745 20.3733C115.762 20.4337 115.771 20.4941 115.762 20.5545V28.2036C115.762 28.5921 115.78 28.9892 115.832 29.3777C115.883 29.7748 115.978 30.172 116.098 30.5605C116.838 32.9346 118.712 34.7822 121.094 35.4815C121.489 35.5936 121.902 35.68 122.315 35.7318C122.556 35.7577 122.805 35.775 123.046 35.7664C123.055 35.7664 123.072 35.7664 123.081 35.7577C123.132 35.7577 123.166 35.7145 123.175 35.6627C123.175 35.5246 123.184 35.3951 123.184 35.2569V14.399C123.184 14.2868 123.184 14.1746 123.184 14.071C123.184 14.0451 123.175 14.0191 123.175 14.0019C123.158 13.9674 123.132 13.9414 123.106 13.9242C122.985 13.907 122.865 13.907 122.737 13.9156C118.437 13.9156 114.138 13.9156 109.838 13.9156C109.451 13.9156 109.055 13.9328 108.669 13.9588C108.23 13.9846 107.791 14.0451 107.361 14.14C106.725 14.2695 106.106 14.4595 105.504 14.7012C104.378 15.1588 103.355 15.8149 102.46 16.6437C101.746 17.3084 101.11 18.0682 100.577 18.8884C99.5877 20.3905 99.012 22.1258 98.8997 23.9215C98.8916 24.0165 98.8826 24.1201 98.8826 24.215C98.8656 24.4999 98.8575 24.7762 98.8746 25.0611C98.8997 25.4582 98.9258 25.8554 98.9859 26.2611Z" fill="white"/>
<path d="M52.5437 21.133C52.5437 23.1704 52.5437 25.1992 52.5437 27.2366C52.5265 27.6165 52.5523 27.9963 52.6039 28.3763C52.6211 28.5575 52.6383 28.7388 52.6727 28.9201C52.7328 29.2914 52.8275 29.6626 52.9478 30.0252C53.3262 31.1303 53.9367 32.1403 54.7536 32.9777C55.0976 33.3403 55.476 33.677 55.8715 33.9792C56.6368 34.5749 57.4967 35.0238 58.4168 35.3346C58.9241 35.5073 59.4572 35.6282 59.9903 35.6885C60.0247 35.6885 60.0591 35.6973 60.1021 35.7059C60.1967 35.7317 60.2913 35.7404 60.3945 35.7404C60.6954 35.7663 61.005 35.7663 61.306 35.7663C65.5797 35.7663 69.8533 35.7663 74.127 35.7663C74.2129 35.7663 74.2989 35.7663 74.3849 35.7663C74.4107 35.7663 74.4365 35.7576 74.4537 35.749C74.4709 35.7404 74.4881 35.7231 74.4967 35.6972C74.5139 35.5764 74.5139 35.4555 74.5139 35.3346C74.5139 31.8382 74.5139 28.3503 74.5139 24.8538C74.5139 21.3747 74.5139 17.8868 74.5139 14.4076C74.5139 14.2867 74.5139 14.1659 74.5139 14.0364C74.5053 13.9846 74.4624 13.95 74.4193 13.9414H74.3849C74.0409 13.95 73.7056 13.976 73.3617 14.0278C73.0607 14.0709 72.7597 14.14 72.4588 14.2263C69.6297 15.0551 67.5488 17.4811 67.1705 20.425C67.1532 20.5458 67.1446 20.6667 67.1274 20.7876C67.1188 20.8998 67.1188 21.0121 67.1188 21.1156C67.1188 23.7056 67.1188 26.287 67.1188 28.877C67.1188 28.9892 67.1188 29.1014 67.1188 29.205C67.1188 29.2396 67.1102 29.2741 67.1102 29.3173C67.1017 29.3517 67.0758 29.3777 67.0415 29.3949C66.9899 29.4036 66.9468 29.4036 66.8953 29.4122C65.6398 29.4122 64.3844 29.4122 63.1204 29.4122C62.8624 29.4122 62.6044 29.4036 62.355 29.3691C62.0971 29.3345 61.8477 29.2741 61.607 29.1877C61.2974 29.0755 61.0137 28.9028 60.7729 28.6698C60.5407 28.4453 60.3601 28.1777 60.2484 27.8755C60.1279 27.5819 60.0506 27.2712 60.0076 26.9517C59.9989 26.8395 59.9903 26.7359 59.9645 26.6237C59.9388 26.4942 59.9301 26.3561 59.9388 26.2179C59.9388 26.1661 59.9388 26.1229 59.9388 26.0712C59.9388 24.5258 59.9388 22.9805 59.9388 21.4351C59.9388 21.1933 59.9301 20.943 59.9044 20.7012C59.87 20.261 59.7925 19.8293 59.6808 19.4063C58.8295 16.2897 56.0693 14.0795 52.8533 13.9414C52.7931 13.9414 52.7328 13.9414 52.6727 13.9414C52.6469 13.9414 52.6211 13.95 52.6039 13.9587C52.5867 13.9674 52.5695 13.9846 52.5609 14.0105C52.5437 14.1227 52.5351 14.2263 52.5437 14.3386C52.5437 16.5918 52.5437 18.8624 52.5437 21.133Z" fill="white"/>
<path d="M76.6387 18.7505C76.8967 19.2684 77.3094 19.6914 77.8254 19.9677C78.1779 20.1577 78.5735 20.2699 78.9776 20.2958C79.1237 20.3044 79.27 20.3044 79.4161 20.3044C79.5279 20.3044 79.6397 20.3131 79.7429 20.3303C79.7945 20.339 79.8375 20.3476 79.8891 20.3563C80.0353 20.3735 80.1814 20.3994 80.319 20.4339C81.0155 20.5893 81.6605 20.9174 82.185 21.4009C82.7525 21.9102 83.1739 22.5663 83.406 23.2916C83.5522 23.7405 83.5264 23.6887 83.621 24.293C83.6554 24.4398 83.664 24.5865 83.6468 24.7333C83.6382 24.88 83.6382 25.0268 83.6554 25.1736C83.664 25.234 83.664 25.2945 83.6554 25.3549C83.6382 25.4412 83.621 25.5189 83.621 25.6052C83.6296 25.7089 83.578 25.7952 83.5694 25.8901C83.535 26.106 83.4748 26.3218 83.3974 26.529C83.2427 26.9866 83.0105 27.401 82.7009 27.7722C82.314 28.2298 81.841 28.6096 81.2993 28.8773C80.8006 29.1276 80.2502 29.2917 79.6913 29.3435C79.4849 29.3694 79.2786 29.3866 79.0722 29.3866C78.9517 29.3866 78.8314 29.4038 78.7024 29.4126C78.5047 29.4298 78.3155 29.4643 78.1349 29.5334C77.2234 29.8356 76.5441 30.6212 76.3807 31.5794C76.3636 31.6658 76.3549 31.7521 76.3549 31.8384C76.3549 31.9507 76.3549 32.0629 76.3549 32.1665C76.3549 33.2457 76.3549 34.3248 76.3549 35.404C76.3549 35.4989 76.3549 35.6025 76.3636 35.6975C76.3721 35.7234 76.3893 35.7406 76.4065 35.7493C76.4925 35.7666 76.5785 35.7752 76.6645 35.7666H80.8435C80.964 35.7666 81.0843 35.7666 81.2133 35.7666C81.5573 35.758 81.8926 35.7148 82.2279 35.6543C82.4516 35.5939 82.6837 35.5508 82.8987 35.4817C83.1395 35.404 83.3888 35.3263 83.621 35.2313C84.2143 34.9982 84.7733 34.7047 85.2978 34.3421C86.0631 33.8327 86.6907 33.1334 87.1207 32.3133C87.1293 32.296 87.1465 32.2701 87.1637 32.2529C87.1895 32.227 87.2325 32.2356 87.2583 32.2615C87.2927 32.3133 87.3185 32.365 87.3528 32.4169C87.6023 32.8399 87.9119 33.2284 88.2644 33.5651C88.5137 33.8068 88.7717 34.0227 89.0555 34.2212C89.8035 34.7478 90.6287 35.1622 91.5062 35.4385C91.799 35.5335 92.0908 35.6025 92.3917 35.6543C92.6414 35.7061 92.8992 35.7406 93.157 35.7493C93.3294 35.7493 93.5009 35.758 93.6734 35.7666H97.9207C97.9728 35.7666 98.0159 35.7666 98.0671 35.758C98.1183 35.7493 98.1534 35.7061 98.1614 35.6629C98.1614 35.568 98.1704 35.4645 98.1704 35.3694C98.1704 34.3939 98.1704 33.4097 98.1704 32.4255C98.1704 32.1924 98.1614 31.9593 98.1444 31.7262C98.1363 31.588 98.1102 31.4586 98.0671 31.3291C97.9207 30.8024 97.6199 30.3363 97.1986 29.9996C96.7855 29.6456 96.2699 29.447 95.7284 29.4126C95.608 29.4038 95.4876 29.3952 95.3583 29.3952C94.894 29.3866 94.4296 29.3175 93.9824 29.1966C93.2171 28.9808 92.5121 28.5664 91.9615 27.9966C91.6696 27.7031 91.4289 27.3578 91.2484 26.9779C91.0328 26.5203 90.8954 26.037 90.8523 25.5361C90.8523 25.5017 90.8523 25.4671 90.8442 25.424C90.8101 25.2945 90.8011 25.1563 90.8092 25.0268C90.8092 24.8887 90.8092 24.7592 90.8092 24.621C90.8092 24.5693 90.8092 24.5261 90.8182 24.4743C90.8442 24.3793 90.8523 24.2844 90.8613 24.1807C90.8873 23.9391 90.9385 23.6973 91.0158 23.4642C91.2915 22.4886 91.9013 21.6426 92.7357 21.0642C93.2773 20.6843 93.9051 20.4339 94.559 20.3563C94.6793 20.339 94.7997 20.3131 94.92 20.3044C95.0404 20.2958 95.1868 20.2958 95.3242 20.2958C95.3844 20.2958 95.4445 20.2872 95.5047 20.2872C95.7023 20.2699 95.8918 20.244 96.0804 20.1922C96.8546 19.9763 97.4995 19.4325 97.8606 18.7159C98.007 18.4483 98.0932 18.1461 98.1273 17.844C98.1534 17.6109 98.1614 17.3777 98.1614 17.1447C98.1614 16.1864 98.1614 15.2281 98.1614 14.2784C98.1614 14.218 98.1614 14.1576 98.1614 14.0971C98.1614 14.0712 98.1534 14.0453 98.1534 14.0195C98.1444 13.9676 98.1013 13.9331 98.0501 13.9244C97.9549 13.9244 97.8525 13.9158 97.7573 13.9158H93.2522C93.157 13.9158 93.0537 13.9158 92.9594 13.9158C92.5723 13.9244 92.1771 13.9676 91.799 14.0539C91.3427 14.1576 90.9044 14.313 90.4913 14.5202C89.7691 14.8828 89.107 15.349 88.5223 15.9102C88.1182 16.2986 87.757 16.7389 87.4389 17.2051L87.2497 17.4727C87.2239 17.4986 87.1809 17.4986 87.1551 17.4727C87.1121 17.4037 87.0605 17.326 87.0176 17.2569C86.708 16.7562 86.3382 16.2986 85.9083 15.8928C85.3838 15.4007 84.7991 14.9777 84.1627 14.6324C83.6897 14.3734 83.1825 14.1835 82.6579 14.0626C82.4773 14.0195 82.2967 13.9849 82.1162 13.959C81.798 13.9244 81.4799 13.9072 81.1617 13.9072C80.491 13.9072 79.8203 13.9072 79.1496 13.9072H76.6215C76.5527 13.8986 76.4753 13.9072 76.4065 13.9244C76.3807 13.9331 76.3636 13.9504 76.3549 13.9763C76.3463 14.0021 76.3463 14.0195 76.3463 14.0453C76.3463 15.2626 76.3463 16.4713 76.3463 17.6886C76.3463 17.8008 76.3549 17.913 76.3807 18.0167C76.4409 18.2756 76.5269 18.5174 76.6387 18.7505Z" fill="white"/>
<path d="M125.48 35.6541C125.497 35.6972 125.532 35.7318 125.584 35.7404C125.61 35.7404 125.635 35.7404 125.652 35.7404C125.876 35.749 126.091 35.7232 126.315 35.7146C126.495 35.6714 126.676 35.6627 126.856 35.6282C127.062 35.585 127.261 35.5418 127.458 35.4814C127.63 35.4297 127.81 35.3692 127.983 35.3088C130.158 34.5232 131.844 32.762 132.54 30.5518C132.669 30.172 132.755 29.7748 132.798 29.3691C132.85 29.0928 132.876 28.8079 132.858 28.5316C132.858 28.4453 132.858 28.359 132.858 28.2727V14.3213C132.858 14.2091 132.858 14.0969 132.858 13.9933C132.858 13.9415 132.824 13.8983 132.772 13.8983C132.652 13.8983 132.532 13.8896 132.402 13.8896H125.738C125.678 13.8896 125.618 13.8983 125.558 13.8983C125.524 13.9069 125.497 13.9328 125.48 13.9673C125.48 14.0882 125.471 14.2091 125.471 14.3386C125.471 17.8264 125.471 21.3229 125.471 24.8194V35.3346C125.48 35.4383 125.48 35.5418 125.48 35.6541Z" fill="white"/>
<path d="M149.995 48.3104V20.4422C149.995 20.4164 149.807 19.3113 149.747 19.1301C149.488 18.3012 149.084 17.5156 148.559 16.825C147.837 15.858 146.882 15.0896 145.799 14.5803C145.258 14.3213 144.69 14.14 144.096 14.0191C143.83 13.9673 143.564 13.9415 143.297 13.9069C143.116 13.881 142.927 13.881 142.746 13.8982C142.712 13.9069 142.686 13.9328 142.678 13.9673C142.678 14.0882 142.678 14.2091 142.678 14.3385C142.678 18.0768 142.678 21.8236 142.678 25.5618C142.678 25.6481 142.678 25.7344 142.678 25.8208C142.678 25.8553 142.678 25.8985 142.678 25.933C142.678 25.9934 142.635 26.0539 142.566 26.0539C142.446 26.0539 142.325 26.0625 142.197 26.0625H134.922C134.888 26.0625 134.853 26.0711 134.809 26.0711C134.758 26.0797 134.724 26.1229 134.715 26.1661C134.715 26.2783 134.707 26.382 134.707 26.4941V32.0453C134.707 32.1316 134.707 32.218 134.707 32.3044C134.707 32.3302 134.715 32.3562 134.724 32.3734C134.732 32.3907 134.749 32.4079 134.775 32.4166C134.888 32.4339 134.99 32.4425 135.102 32.4339H142.463C142.498 32.4339 142.532 32.4425 142.575 32.4425C142.626 32.4511 142.661 32.4857 142.669 32.5374C142.669 32.6151 142.678 32.6842 142.678 32.7533C142.678 34.7044 142.669 46.7219 142.669 48.3191" fill="white"/>
<path d="M7.4683 48.3105C7.4683 48.1896 7.4597 38.5722 7.4597 38.4427C7.4597 32.5548 7.4597 26.6756 7.4597 20.7877C7.4597 20.7014 7.4597 20.615 7.4597 20.5287C7.4597 20.4942 7.4597 20.451 7.4597 20.4165C7.4683 20.3561 7.5113 20.3043 7.57149 20.2956C7.63168 20.2956 7.69187 20.287 7.75206 20.287C8.93872 20.287 10.1168 20.287 11.3034 20.287C11.5356 20.2784 11.7678 20.2956 11.9999 20.3388C12.0085 20.3388 12.0257 20.3388 12.0343 20.3388C12.1805 20.3561 12.3267 20.3733 12.4643 20.4165C13.006 20.5287 13.5219 20.7445 13.9863 21.038C14.6312 21.4438 15.1729 21.9878 15.5942 22.6266C15.8436 23.0064 16.0328 23.4208 16.1532 23.8612C16.1876 23.982 16.2134 24.0943 16.2478 24.2152C16.2907 24.3964 16.2736 24.5864 16.3338 24.759C16.3338 24.7676 16.3338 24.7849 16.3338 24.7936C16.3338 24.8194 16.3338 24.8454 16.3338 24.8713V25.277C16.3338 25.3375 16.3251 25.3978 16.308 25.4583C16.2994 25.4929 16.2907 25.5274 16.2822 25.5619C16.2736 25.7605 16.2392 25.9504 16.1876 26.1403C16.0586 26.6497 15.8179 27.1332 15.4911 27.5476C15.2503 27.8411 14.9751 28.1087 14.6742 28.3332C13.9432 28.8771 13.0834 29.2138 12.1891 29.3346C11.9054 29.3519 11.6302 29.395 11.3464 29.3864C11.226 29.3864 11.1056 29.3864 10.9767 29.3864H9.43742C9.37724 29.3864 9.31707 29.395 9.25689 29.4037C9.23965 29.4123 9.17947 29.4555 9.17947 29.4727C9.17947 29.5936 9.17085 29.7145 9.17085 29.844V35.542C9.17085 35.5765 9.17085 35.6197 9.17947 35.6542C9.17947 35.706 9.22249 35.7405 9.26552 35.7492C9.36009 35.7492 9.46329 35.7578 9.55786 35.7578H13.8487C14.0464 35.7578 14.2356 35.7578 14.4335 35.7492C14.6398 35.7405 14.8462 35.7232 15.0526 35.7146C15.3191 35.6542 15.5857 35.6628 15.8523 35.5937C16.1446 35.5506 16.4283 35.4902 16.7122 35.4125C17.8471 35.1102 18.922 34.6009 19.8765 33.9189C20.5042 33.4699 21.0804 32.9606 21.6049 32.3908C22.1982 31.7606 22.7142 31.0527 23.1441 30.2929C23.5826 29.4987 23.918 28.6526 24.1244 27.7634C24.1932 27.4871 24.2362 27.2108 24.2878 26.9346C24.3393 26.6583 24.3393 26.3994 24.3996 26.1317C24.4081 25.8382 24.4425 25.5446 24.434 25.2511C24.434 25.1129 24.434 24.9834 24.434 24.8454C24.434 24.6382 24.4425 24.431 24.4167 24.2238C24.391 24.0166 24.4167 23.8094 24.3566 23.6022C24.3393 23.395 24.3222 23.1878 24.2791 22.9806C24.2362 22.7129 24.1846 22.454 24.1244 22.1863C23.8664 21.0468 23.4193 19.9675 22.8002 18.9747C22.1724 17.9647 21.39 17.0582 20.4871 16.2812C20.0313 15.884 19.5498 15.5301 19.0339 15.2279C18.3631 14.8308 17.6408 14.5114 16.8927 14.2956C16.5144 14.1919 16.136 14.1056 15.7491 14.0365C15.5427 13.9933 15.3363 13.9675 15.1299 13.9502C14.6828 13.9156 14.2271 13.8898 13.7713 13.8984C11.1056 13.8984 8.44858 13.8984 5.78291 13.8984H5.49055C5.23259 13.8984 4.97461 13.9156 4.72525 13.9588C2.70451 14.2524 0.872939 15.6596 0.210822 17.5934C0.0990366 17.8956 0.056042 18.2064 0.0130474 18.5258C0.00444852 18.5776 -0.00415039 18.9661 -0.00415039 19.1215C-0.00415039 28.7044 -0.00415039 47.8788 -0.00415039 47.8788V48.3019H7.4683V48.3105Z" fill="white"/>
<path d="M19.6184 43.6226C19.7647 43.3377 20.0484 43.1565 20.358 43.1219C20.573 43.096 20.7793 43.1047 20.9943 43.1479C21.2523 43.1996 21.4758 43.3723 21.579 43.614C21.6307 43.7176 21.6651 43.8298 21.6822 43.9421C21.6908 43.9766 21.6908 44.0025 21.6995 44.037C21.7166 44.0975 21.7683 44.1493 21.837 44.1493C22.1466 44.1665 22.4561 44.1579 22.7656 44.1493C22.8344 44.1407 22.8861 44.0888 22.8861 44.0198C22.8861 43.8212 22.8431 43.6226 22.7656 43.4414C22.5937 42.9579 22.2411 42.5607 21.7768 42.3363C21.45 42.1809 21.0975 42.0946 20.7449 42.0773C20.5042 42.06 20.2548 42.0859 20.014 42.1463C19.5497 42.2414 19.1197 42.4917 18.8102 42.8543C18.6038 43.0874 18.4491 43.3637 18.3459 43.6658C18.2169 44.0025 18.1481 44.3651 18.1395 44.7277C18.1395 44.9435 18.1395 45.1507 18.1395 45.3666C18.1395 45.6774 18.1739 45.9882 18.2513 46.2904C18.3372 46.6788 18.5179 47.0328 18.7672 47.3436C19.008 47.6372 19.3176 47.8616 19.6787 47.9825C19.9538 48.0774 20.2462 48.1293 20.5386 48.1293C20.8653 48.1293 21.1921 48.0861 21.5017 47.9739C22.1723 47.7667 22.6797 47.2141 22.8344 46.5235C22.8688 46.4112 22.8775 46.2904 22.8603 46.1781C22.8517 46.1435 22.8 46.0832 22.7656 46.0832L21.9832 46.0745C21.9144 46.0745 21.8542 46.0832 21.7854 46.0832C21.7424 46.0918 21.6995 46.1263 21.6822 46.1695C21.6564 46.299 21.622 46.4284 21.579 46.5493C21.4673 46.8256 21.2179 47.0328 20.9169 47.076C20.7277 47.1105 20.53 47.1191 20.3322 47.0932C20.014 47.0674 19.7389 46.8774 19.5927 46.5925C19.4981 46.4198 19.4379 46.2299 19.4121 46.0314C19.3691 45.7291 19.3519 45.4184 19.3519 45.1076C19.3519 44.8054 19.3691 44.5119 19.4121 44.2184C19.4465 44.0112 19.5153 43.8126 19.6184 43.6226Z" fill="#99C459"/>
<path d="M73.9462 47.5592C73.9462 46.7391 73.9462 45.9189 73.9462 45.0987V42.4915C73.9548 42.4138 73.9462 42.3275 73.9204 42.2498C73.9031 42.2239 73.8774 42.198 73.8516 42.1894C73.8086 42.1807 73.7569 42.1721 73.7054 42.1721C73.1207 42.1721 72.5274 42.1721 71.9426 42.1721C71.848 42.1721 71.7448 42.1807 71.6502 42.1807C71.4353 42.1894 71.2289 42.2238 71.0225 42.2843C70.8161 42.3361 70.6183 42.4224 70.4464 42.5519C70.1712 42.7333 69.9649 43.0008 69.8445 43.3031C69.6725 43.752 69.6725 44.2441 69.8617 44.693C69.9562 44.9434 70.1196 45.1592 70.326 45.3232L70.5582 45.5045C70.5926 45.5391 70.6012 45.5908 70.5926 45.6427C70.5238 45.7894 70.4464 45.9362 70.3776 46.0829C70.1025 46.6268 69.8359 47.1621 69.5693 47.706C69.5263 47.775 69.4919 47.8528 69.4747 47.9305C69.4661 47.9736 69.5005 48.0427 69.5349 48.0427C69.8961 48.0599 70.2486 48.0513 70.6097 48.0427C70.6614 48.0341 70.6958 48.0082 70.7215 47.965C70.7559 47.9132 70.7903 47.8528 70.8247 47.7924L71.5901 46.247C71.6331 46.1779 71.6588 46.1003 71.7018 46.0312C71.7362 45.9707 71.7878 45.9275 71.8566 45.9275C72.1059 45.9103 72.3554 45.9103 72.6047 45.9362C72.6391 45.9448 72.6649 45.9707 72.6735 45.9966C72.6907 46.0398 72.6993 46.0915 72.6993 46.1434C72.6993 46.5836 72.6993 47.0326 72.6993 47.4729C72.6993 47.6024 72.6993 47.7319 72.6993 47.8701C72.7079 47.9564 72.7681 48.0254 72.8541 48.0341C72.9314 48.0427 73.0175 48.0427 73.0948 48.0427C73.327 48.0427 73.5592 48.0427 73.7828 48.0427C73.7913 48.0427 73.7999 48.0427 73.8086 48.0427C73.9031 48.0341 73.9719 47.9477 73.9548 47.8528C73.9462 47.7578 73.9462 47.6542 73.9462 47.5592ZM72.6649 44.9002C72.6477 44.9434 72.6133 44.9779 72.5703 44.9952C72.2779 45.0124 71.9856 45.0124 71.6932 44.9952C71.547 44.9866 71.4009 44.9347 71.2805 44.857C71.1945 44.8052 71.1257 44.7362 71.0827 44.6498C71.0225 44.5462 70.9881 44.4426 70.9795 44.3217C70.9623 44.1577 70.9623 43.9937 70.9795 43.8296C70.9967 43.6311 71.0999 43.4498 71.2633 43.3289C71.2977 43.2944 71.3406 43.2685 71.3837 43.2512C71.547 43.1822 71.7276 43.1477 71.9082 43.1477C72.1318 43.1563 72.3639 43.1304 72.5875 43.1649C72.6219 43.1736 72.6391 43.1994 72.6563 43.234C72.6735 43.2771 72.6735 43.3289 72.6735 43.3808C72.6735 43.6052 72.6735 43.8383 72.6735 44.1319C72.6907 44.3822 72.6821 44.6412 72.6649 44.9002Z" fill="#99C459"/>
<path d="M84.7815 44.0802C84.7386 43.9421 84.7386 43.7867 84.7042 43.6486C84.5666 43.0442 84.128 42.5607 83.5518 42.3449C83.3197 42.2586 83.0875 42.1982 82.8382 42.1809C82.6919 42.1636 82.5458 42.1636 82.3996 42.1636H80.6368C80.5594 42.1636 80.4734 42.1723 80.396 42.1723C80.3101 42.1809 80.2499 42.25 80.2413 42.3363C80.2326 42.4485 80.2326 42.5694 80.2326 42.6816V47.6889C80.224 47.7666 80.2326 47.8529 80.2499 47.9306C80.2757 47.9738 80.3101 48.0084 80.3531 48.0256C80.3702 48.0342 80.3875 48.0342 80.396 48.0342H81.3247C81.3419 48.0342 81.3591 48.0256 81.3763 48.0256C81.4193 48.0084 81.4537 47.9738 81.4709 47.922C81.4795 47.8615 81.4881 47.7924 81.4881 47.7321C81.4881 47.24 81.4881 46.7479 81.4881 46.2558C81.4881 46.1867 81.4967 46.1263 81.5053 46.0658C81.5139 46.0313 81.5397 46.014 81.5741 46.0054C81.7977 45.9795 82.0298 45.9709 82.2534 45.9882C82.563 45.9882 82.8726 45.9622 83.1735 45.9105C83.4486 45.8673 83.7067 45.7637 83.9474 45.617C84.3258 45.3838 84.601 45.004 84.6955 44.5637C84.7213 44.4342 84.7299 44.3047 84.7643 44.1752H84.7557C84.7815 44.1493 84.7815 44.1147 84.7815 44.0802ZM83.5003 44.2184C83.483 44.2787 83.4745 44.3478 83.4573 44.4082C83.4142 44.6414 83.2509 44.8313 83.0273 44.9003C82.8726 44.9608 82.7177 44.9953 82.5543 44.9953C82.2448 44.9867 81.9353 44.9867 81.6257 44.9867C81.5569 44.978 81.5053 44.9349 81.4967 44.8745C81.4967 44.814 81.4881 44.7449 81.4881 44.6759C81.4881 44.4773 81.4795 44.2787 81.4881 44.0456C81.4967 43.8126 81.4709 43.5363 81.4967 43.26C81.5139 43.2168 81.5483 43.1823 81.5999 43.1651C81.6171 43.1651 81.6343 43.1565 81.6515 43.1565H82.5802C82.7436 43.1565 82.907 43.1996 83.0531 43.2687C83.1563 43.3119 83.2509 43.3895 83.3111 43.4845C83.4057 43.5967 83.4573 43.7349 83.4745 43.8903C83.4745 43.9421 83.483 43.9852 83.5003 44.0284C83.5174 44.0888 83.5174 44.1579 83.5003 44.2184Z" fill="#99C459"/>
<path d="M67.756 47.8182C67.7044 47.68 67.6528 47.5419 67.6012 47.4037L65.7868 42.526C65.7524 42.4311 65.7095 42.3447 65.6751 42.2583C65.6578 42.2151 65.6063 42.1807 65.5632 42.1807C65.2537 42.1634 64.9442 42.1634 64.6346 42.1807C64.583 42.1893 64.54 42.2151 64.5227 42.2583C64.4798 42.3274 64.4454 42.4051 64.4282 42.4828C63.7833 44.2095 63.1383 45.9448 62.4935 47.68C62.4676 47.7405 62.4504 47.8009 62.4247 47.8614C62.3903 47.9563 62.4332 48.034 62.5192 48.034C62.8546 48.034 63.1985 48.034 63.5511 48.034C63.6027 48.0254 63.6457 47.9995 63.6629 47.9563C63.6887 47.9132 63.7145 47.87 63.7316 47.8268C63.7918 47.5678 63.9036 47.3347 63.9811 47.0844C63.9982 47.0239 64.0326 46.9635 64.067 46.9117C64.0843 46.8858 64.11 46.8685 64.1444 46.8599C64.196 46.8513 64.239 46.8426 64.2906 46.8426H66.0104C66.0964 46.8426 66.1652 46.8944 66.1996 46.9721C66.2426 47.0757 66.277 47.1879 66.3114 47.3002C66.3802 47.4988 66.4489 47.706 66.5177 47.9046C66.5263 47.939 66.5436 47.965 66.5693 47.9822C66.5865 48.0081 66.6209 48.0254 66.6468 48.034C66.8273 48.0427 67.0079 48.0513 67.1798 48.0599V48.0513H67.6184C67.6528 48.0513 67.6872 48.0427 67.713 48.034C67.7474 48.0254 67.7732 47.9995 67.7732 47.9649H67.7646C67.7818 47.9132 67.7732 47.87 67.756 47.8182ZM65.6664 45.8412C65.6493 45.8498 65.632 45.8498 65.6149 45.8498H64.54C64.5227 45.8498 64.5056 45.8412 64.4884 45.8412C64.4454 45.8239 64.4196 45.7721 64.4196 45.729C64.4454 45.6339 64.4712 45.539 64.5056 45.4527C64.6432 45.021 64.7808 44.5807 64.9269 44.149C64.9442 44.0714 64.9872 43.9937 65.0301 43.9332C65.0559 43.9073 65.0818 43.9073 65.1075 43.9332C65.1419 43.9591 65.1763 44.0023 65.1935 44.0455L65.4944 44.926C65.5117 44.9692 65.5202 45.021 65.5375 45.0642C65.6063 45.28 65.6751 45.4958 65.7524 45.7116C65.7524 45.7116 65.7524 45.7116 65.7524 45.7203C65.7783 45.7721 65.7352 45.8325 65.6664 45.8412Z" fill="#99C459"/>
<path d="M91.3256 47.6112L89.4249 42.5089C89.3905 42.414 89.3475 42.3277 89.3131 42.2414C89.2958 42.1982 89.2443 42.1636 89.2012 42.1636C88.8917 42.1636 88.5822 42.1636 88.2726 42.1636C88.221 42.1636 88.178 42.1982 88.1608 42.2414C88.1264 42.319 88.092 42.3881 88.0662 42.4658C87.7223 43.3809 87.3783 44.296 87.0429 45.2198C86.7506 46.014 86.4496 46.8169 86.1572 47.6112C86.1228 47.7061 86.0971 47.7924 86.0627 47.8875C86.054 47.8961 86.054 47.9133 86.054 47.922C86.054 47.9738 86.0971 48.017 86.1486 48.017C86.484 48.017 86.828 48.017 87.1719 48.017C87.2407 48.0083 87.2923 47.9652 87.3181 47.9047C87.3353 47.8615 87.3611 47.8184 87.3697 47.7666C87.4471 47.5335 87.5245 47.3004 87.6019 47.0673C87.6277 47.0068 87.6535 46.9464 87.6879 46.8947C87.705 46.8687 87.7309 46.8515 87.7653 46.8428C87.7997 46.8342 87.8255 46.8256 87.8599 46.8256H89.6227C89.6571 46.8256 89.6915 46.8342 89.7172 46.8428C89.7516 46.8515 89.7774 46.8687 89.7946 46.8947C89.8374 46.981 89.8805 47.0759 89.9066 47.1622C89.9928 47.4126 90.0781 47.6543 90.1643 47.9047C90.1814 47.9738 90.2416 48.017 90.3107 48.017C90.4742 48.0256 90.6377 48.0256 90.8011 48.0256C90.9637 48.0256 91.1271 48.0256 91.2906 48.0256C91.3256 48.0256 91.3508 48.017 91.3858 48.0083H91.3768C91.411 47.9997 91.437 47.9565 91.428 47.922C91.4029 47.827 91.3679 47.7148 91.3256 47.6112ZM89.3044 45.8414C89.2529 45.85 89.2099 45.85 89.1583 45.85C89.0121 45.85 88.8659 45.85 88.6767 45.85C88.4961 45.8586 88.3156 45.85 88.1436 45.8328C88.1006 45.8154 88.0662 45.7723 88.0662 45.7291C88.0662 45.7119 88.0662 45.6946 88.0662 45.6773C88.2382 45.1507 88.4102 44.6241 88.5908 44.1061C88.6079 44.0629 88.6337 44.0198 88.6596 43.9766C88.6767 43.9507 88.7111 43.9335 88.7455 43.9421C88.7799 43.9421 88.8057 43.9593 88.8229 43.9938C88.9175 44.2528 89.0121 44.5119 89.098 44.7708C89.2012 45.0817 89.3044 45.3838 89.4076 45.6946C89.4076 45.6946 89.4076 45.6946 89.4076 45.7033C89.4076 45.7723 89.3646 45.8328 89.3044 45.8414Z" fill="#99C459"/>
<path d="M46.1636 42.2672C46.155 42.2326 46.1292 42.2068 46.1033 42.1982C46.0775 42.1809 46.0431 42.1723 46.0087 42.1723C45.5874 42.1723 45.1575 42.1723 44.7362 42.1723C44.6501 42.1723 44.5728 42.224 44.5469 42.3017C44.4008 42.6989 44.2632 43.1047 44.1256 43.5017L43.2313 46.04C43.2141 46.0831 43.1884 46.1263 43.1625 46.1694C43.154 46.1781 43.154 46.1867 43.1454 46.1954C43.111 46.2212 43.0766 46.2126 43.0508 46.1781C43.0164 46.1177 42.9906 46.0658 42.9647 46.0054C42.6896 45.237 42.4231 44.4687 42.1479 43.6917C41.9845 43.2255 41.8211 42.7679 41.6491 42.3017C41.6233 42.224 41.5546 42.1636 41.4686 42.1636C41.0472 42.1636 40.6172 42.1636 40.1959 42.1636C40.1787 42.1636 40.1615 42.1723 40.1444 42.1723C40.0841 42.1895 40.0325 42.2414 40.0325 42.3104C40.0239 42.4226 40.0239 42.5435 40.0239 42.6557V47.5853C40.0239 47.663 40.0239 47.7493 40.0239 47.827C40.0239 47.8615 40.0325 47.8961 40.0325 47.922C40.0497 47.9824 40.1013 48.0342 40.1701 48.0342C40.4796 48.0342 40.7892 48.0342 41.0988 48.0342C41.1676 48.0256 41.2192 47.9738 41.2278 47.9133C41.2364 47.8615 41.245 47.8184 41.245 47.7666C41.245 47.5335 41.245 47.3004 41.245 47.0759C41.2536 46.7133 41.245 46.3507 41.2106 45.9795C41.202 45.8845 41.202 45.781 41.202 45.686C41.1934 45.4098 41.1848 45.1335 41.1762 44.8486C41.1762 44.6328 41.1762 44.4256 41.1762 44.2097C41.1762 44.1752 41.1848 44.1493 41.202 44.1147C41.202 44.1061 41.2278 44.1061 41.2364 44.1061C41.245 44.1061 41.2794 44.1147 41.2794 44.1233C41.3224 44.227 41.3654 44.3305 41.4083 44.4428C41.7953 45.5219 42.1823 46.6011 42.5778 47.6803C42.6122 47.7752 42.6552 47.8615 42.6896 47.9479C42.7154 47.991 42.7584 48.017 42.8014 48.017C43.0164 48.0342 43.2228 48.0342 43.4377 48.017C43.4893 48.0084 43.5323 47.9738 43.5495 47.9306C43.5839 47.8443 43.6268 47.7493 43.6612 47.6543C43.9536 46.8515 44.2374 46.0572 44.5298 45.2543C44.6674 44.8658 44.805 44.4859 44.9425 44.0975C44.9597 44.0543 44.9683 44.037 45.0113 44.0543C45.0457 44.0629 45.0629 44.0888 45.0629 44.1233C45.0457 44.7449 45.0285 45.3666 44.9941 45.9882C44.9683 46.4112 44.9683 46.8428 44.9683 47.2659C44.9683 47.4299 44.9683 47.594 44.9683 47.758C44.9683 47.8098 44.9855 47.8529 44.9855 47.9047C45.0027 47.9652 45.0543 48.017 45.1231 48.0256C45.4327 48.0256 45.7422 48.0256 46.0518 48.0256C46.1206 48.0256 46.1721 47.9738 46.1894 47.9133C46.198 47.8357 46.198 47.7493 46.198 47.6716V45.1161C46.198 44.2442 46.198 43.3723 46.1894 42.5089C46.1894 42.4312 46.1807 42.3449 46.1636 42.2672Z" fill="#99C459"/>
<path d="M37.3749 46.7649C36.8504 45.3663 36.3344 43.9763 35.8099 42.5778C35.767 42.4742 35.724 42.362 35.6809 42.2583C35.6638 42.2151 35.6208 42.1807 35.5692 42.1807C35.2596 42.1634 34.95 42.1634 34.6405 42.1807C34.5889 42.1807 34.5459 42.2151 34.5287 42.2583C34.4943 42.336 34.4599 42.4051 34.4255 42.4828L33.0583 46.1605L32.508 47.6282C32.4564 47.7318 32.4305 47.844 32.4134 47.9563C32.4134 47.9908 32.4305 48.0254 32.4649 48.0254C32.6456 48.0426 32.8347 48.0512 33.0153 48.0512L33.5398 48.0426C33.5914 48.034 33.6344 48.0081 33.6516 47.9649C33.6774 47.9217 33.7032 47.8786 33.7118 47.8354C33.7892 47.5937 33.8666 47.3693 33.944 47.1361C33.9612 47.067 33.9956 47.0153 34.0213 46.9549C34.0472 46.9117 34.0901 46.8772 34.1332 46.8685C34.1676 46.8598 34.1933 46.8512 34.2277 46.8598H35.9389C35.9905 46.8598 36.0336 46.8685 36.0851 46.8858C36.1195 46.8944 36.1453 46.9117 36.1625 46.9462C36.1883 46.9893 36.2055 47.0325 36.2227 47.0844C36.3087 47.3347 36.3947 47.5764 36.472 47.8268C36.4893 47.87 36.5064 47.9217 36.5237 47.9649C36.5495 48.0254 36.6096 48.0685 36.6784 48.0685C37.0052 48.0685 37.3319 48.0685 37.6587 48.0685C37.6759 48.0685 37.6931 48.0598 37.7017 48.0598C37.7447 48.0426 37.7705 47.9994 37.7705 47.9477C37.7447 47.87 37.7275 47.7923 37.7017 47.7145C37.6071 47.3779 37.4953 47.067 37.3749 46.7649ZM35.6896 45.8498C35.6379 45.8498 35.595 45.8584 35.5433 45.8584H35.0532C34.8727 45.867 34.6921 45.8584 34.5201 45.8412C34.4857 45.8325 34.4341 45.7548 34.4341 45.7375C34.4341 45.7203 34.4341 45.703 34.4341 45.6858C34.6319 45.0814 34.8211 44.4771 35.0361 43.8728C35.0446 43.8555 35.0532 43.8469 35.0618 43.8382C35.0705 43.8296 35.0876 43.8382 35.1049 43.8382C35.1393 43.8382 35.165 43.8641 35.1737 43.8986L35.7841 45.7116V45.7203C35.8014 45.7807 35.7497 45.8412 35.6896 45.8498Z" fill="#99C459"/>
<path d="M53.3612 44.1578C53.4213 44.1405 53.4644 44.0887 53.4644 44.0196C53.4644 43.9678 53.4644 43.9247 53.4557 43.8729C53.43 43.778 53.4042 43.6829 53.3783 43.588C53.1892 42.9491 52.699 42.4398 52.0627 42.2412C51.8134 42.1635 51.5553 42.1117 51.2974 42.0945C51.0652 42.0771 50.8417 42.1031 50.6181 42.1548C50.0333 42.2671 49.5174 42.6124 49.1993 43.1131C49.1047 43.2513 49.0273 43.398 48.9672 43.5448C48.8467 43.8297 48.7779 44.1405 48.7435 44.4513C48.7091 44.9089 48.7091 45.3664 48.7435 45.824C48.7608 46.0485 48.8123 46.2815 48.8811 46.4974C48.9413 46.7046 49.0273 46.8945 49.1477 47.0758C49.4056 47.5161 49.8098 47.8528 50.2999 48.0082C50.4633 48.0945 50.6525 48.0859 50.8244 48.1204C51.0137 48.155 51.2114 48.155 51.4092 48.129C51.4865 48.1204 51.5726 48.0945 51.65 48.0945C51.7961 48.0773 51.9424 48.0427 52.08 47.9909C52.8538 47.7146 53.301 47.1708 53.4644 46.3592C53.473 46.3074 53.473 46.2643 53.4644 46.2125C53.4557 46.1694 53.4213 46.1262 53.3783 46.1089C53.0516 46.0916 52.7248 46.1003 52.3981 46.1089C52.3465 46.1175 52.3035 46.1434 52.2863 46.1866C52.2519 46.2988 52.2261 46.4111 52.1917 46.5146C52.0971 46.8168 51.8392 47.0413 51.5296 47.0931C51.3232 47.1362 51.1082 47.1362 50.8932 47.1104C50.5923 47.0758 50.3343 46.8945 50.1967 46.6269C50.1194 46.4801 50.0677 46.3247 50.0333 46.1607H50.0248C49.9388 45.6599 49.9216 45.1506 49.9732 44.6499C49.9818 44.4513 50.0076 44.2613 50.0506 44.0628C50.0936 43.8901 50.1538 43.7175 50.2484 43.562C50.3773 43.329 50.6095 43.1736 50.8675 43.1304C51.1254 43.0873 51.392 43.0959 51.6414 43.1563C51.6758 43.165 51.7016 43.1736 51.736 43.1908C51.9681 43.2859 52.1401 43.4844 52.2089 43.7261C52.2433 43.8383 52.2691 43.942 52.3035 44.0541C52.3207 44.1146 52.3809 44.1578 52.4496 44.1578C52.5958 44.1578 52.7421 44.1578 52.8882 44.1578V44.1664L53.3612 44.1578Z" fill="#99C459"/>
<path d="M60.5068 47.663C60.0166 46.9033 59.5265 46.1435 59.0449 45.3838C58.9934 45.2975 58.9417 45.2198 58.8902 45.1335C58.8644 45.0903 58.8472 45.0471 58.8214 45.004C58.7956 44.9608 58.8041 44.9089 58.83 44.8658C58.9934 44.5982 59.1654 44.3392 59.3287 44.0802C59.6726 43.5449 60.0253 43.0096 60.3692 42.4744C60.4036 42.4226 60.438 42.3535 60.4724 42.3104C60.4981 42.2672 60.4724 42.1636 60.4036 42.1636C60.008 42.1636 59.6211 42.1636 59.2255 42.1636C59.1395 42.1636 59.0622 42.2068 59.0278 42.2758C58.959 42.3881 58.8902 42.4917 58.8214 42.6126C58.4774 43.1737 58.142 43.7263 57.7981 44.2874C57.7637 44.3478 57.7293 44.3996 57.6863 44.4514C57.6692 44.4773 57.6348 44.4946 57.609 44.5032C57.4799 44.5291 57.3509 44.5291 57.222 44.5032C57.1962 44.4859 57.1704 44.46 57.1618 44.4342C57.1618 43.778 57.1618 43.1219 57.1618 42.4744C57.1618 42.4054 57.1532 42.3449 57.136 42.2845C57.1188 42.2586 57.1016 42.2326 57.0758 42.2154C57.05 42.1982 57.0156 42.1895 56.9812 42.1895C56.6717 42.1895 56.3621 42.1895 56.0525 42.1895C56.0353 42.1895 56.0181 42.1895 56.0096 42.1982C55.9838 42.2154 55.9494 42.2326 55.9408 42.2586C55.915 42.3363 55.9064 42.4226 55.915 42.5003V45.1075C55.915 45.9968 55.915 46.8773 55.915 47.7666C55.915 48.0256 55.9579 48.0601 56.1815 48.0601H56.7318C56.8264 48.0601 56.9296 48.0515 57.0242 48.0515C57.1016 48.0342 57.1704 47.9652 57.1789 47.8788C57.1789 47.827 57.1789 47.7838 57.1789 47.7321V46.4371V45.7464C57.1876 45.6946 57.222 45.6601 57.265 45.6428L57.3165 45.6342C57.4455 45.6342 57.5746 45.6342 57.7036 45.6342C57.7724 45.6428 57.8325 45.6773 57.8669 45.7291C57.9185 45.7896 57.9615 45.8673 58.0045 45.9363C58.357 46.4889 58.701 47.0414 59.0449 47.6026C59.088 47.6716 59.131 47.7407 59.1739 47.8098C59.1997 47.8529 59.2255 47.8961 59.2599 47.9306C59.3029 47.9997 59.3803 48.0429 59.4663 48.0429H60.5927C60.61 48.0429 60.6357 48.0429 60.6357 48.0342H60.6271C60.6444 48.0083 60.6788 47.9824 60.6701 47.9652C60.6271 47.8529 60.5756 47.7493 60.5068 47.663Z" fill="#99C459"/>
<path d="M15.6374 42.3009C15.6289 42.2318 15.5772 42.18 15.5084 42.1714H14.5282C14.4765 42.1714 14.4336 42.1973 14.4078 42.2405C14.3562 42.3009 14.3132 42.37 14.2702 42.4477L13.4361 43.8376C13.0577 44.4679 12.6794 45.0981 12.3011 45.7283C12.2839 45.7715 12.2495 45.8146 12.2065 45.8406C12.1893 45.8492 12.1807 45.8492 12.1635 45.8492C12.1463 45.8492 12.1291 45.8406 12.1205 45.8319C12.0947 45.7715 12.0861 45.7111 12.0947 45.642C12.0947 44.7269 12.0947 43.8031 12.0947 42.888C12.0947 42.7412 12.0947 42.5944 12.0947 42.4477C12.0947 42.3958 12.0861 42.3527 12.0861 42.3009C12.0689 42.2405 12.0259 42.1887 11.9572 42.1714C11.6476 42.1714 11.338 42.1714 11.0285 42.1714C11.0112 42.1714 10.9941 42.1714 10.9854 42.18C10.9597 42.1973 10.9338 42.2232 10.9166 42.2491C10.8909 42.3269 10.8822 42.4132 10.8909 42.4909V45.0981V47.5499C10.8909 47.6622 10.8995 47.783 10.8995 47.8953C10.908 47.9644 10.951 48.0162 11.0112 48.0334C11.338 48.0507 11.6647 48.042 11.9915 48.0334C12.0431 48.0248 12.0861 48.0075 12.1205 47.9644C12.1635 47.9125 12.1979 47.8607 12.2323 47.809L12.7654 46.9283L14.2272 44.4851C14.2444 44.442 14.2788 44.3988 14.3218 44.3729C14.339 44.3643 14.3476 44.3643 14.3648 44.3643C14.382 44.3643 14.4078 44.3729 14.4078 44.3815C14.4164 44.4765 14.425 44.5714 14.425 44.6751C14.425 45.5729 14.425 46.4794 14.425 47.3772V47.7226C14.425 47.7744 14.425 47.8176 14.425 47.8693C14.425 47.9557 14.4938 48.0248 14.5797 48.0248C14.8722 48.0248 15.1645 48.0248 15.4569 48.0248C15.474 48.0248 15.4913 48.0248 15.5084 48.0248C15.5687 48.0075 15.6202 47.9557 15.6289 47.8867C15.6374 47.809 15.6374 47.7226 15.6374 47.6449V42.534C15.6374 42.4822 15.6374 42.4218 15.6374 42.3872C15.646 42.37 15.6374 42.3355 15.6374 42.3009Z" fill="#99C459"/>
<path d="M119.349 44.5982C119.324 44.0371 119.143 43.5018 118.824 43.0442C118.566 42.6817 118.205 42.4054 117.792 42.25C117.638 42.1982 117.483 42.1551 117.32 42.1292C116.899 42.0428 116.468 42.0774 116.073 42.2241C115.489 42.4054 115.006 42.8284 114.748 43.381C114.577 43.7177 114.465 44.0803 114.43 44.4602C114.387 44.9177 114.387 45.3752 114.439 45.8328C114.491 46.2731 114.637 46.6961 114.886 47.0673C115.162 47.4991 115.574 47.8271 116.055 47.9911C116.211 48.0429 116.374 48.0775 116.529 48.1033C116.89 48.181 117.243 48.112 117.595 48.0429C118.119 47.8961 118.575 47.5681 118.876 47.1191C119.125 46.7393 119.289 46.299 119.341 45.8414H119.332C119.366 45.591 119.366 45.3493 119.392 45.1249C119.366 44.9263 119.349 44.7623 119.349 44.5982ZM118.128 45.0126C118.128 45.0903 118.128 45.1767 118.119 45.2544C118.128 45.5307 118.094 45.8069 118.025 46.0831C117.982 46.2731 117.913 46.463 117.801 46.627C117.698 46.7998 117.552 46.9292 117.371 47.0156C117.311 47.0414 117.251 47.0673 117.191 47.0846C117.019 47.1191 116.838 47.1278 116.658 47.1105C116.382 47.076 116.133 46.9292 115.97 46.7047C115.841 46.5321 115.746 46.3422 115.694 46.1349C115.634 45.9277 115.6 45.7205 115.591 45.5047C115.591 45.3752 115.574 45.2458 115.574 45.0644C115.583 44.9177 115.583 44.7191 115.609 44.5291C115.634 44.2875 115.694 44.0458 115.789 43.8212C115.841 43.7004 115.91 43.5882 115.995 43.4846C116.15 43.2946 116.374 43.1651 116.615 43.1306C116.795 43.1047 116.976 43.1047 117.147 43.1393C117.311 43.1738 117.457 43.2428 117.578 43.3465C117.681 43.4328 117.767 43.5277 117.827 43.6486C117.922 43.8212 117.999 44.0026 118.034 44.1925C118.119 44.4601 118.145 44.7364 118.128 45.0126Z" fill="#99C459"/>
<path d="M141.053 47.7146C140.408 45.9793 139.763 44.2527 139.118 42.5174C139.084 42.4224 139.041 42.336 139.006 42.2497C138.98 42.2065 138.937 42.1807 138.894 42.1807C138.584 42.1634 138.275 42.1634 137.966 42.1807C137.913 42.1893 137.871 42.2151 137.853 42.267C137.819 42.336 137.785 42.4137 137.759 42.4914C137.123 44.2095 136.478 45.9275 135.841 47.6455C135.807 47.7405 135.781 47.8355 135.755 47.9304C135.747 47.9822 135.773 48.0254 135.824 48.0427C135.971 48.0599 136.116 48.0599 136.263 48.0599C136.46 48.0599 136.65 48.0599 136.847 48.0599C136.934 48.0599 137.003 47.9995 137.028 47.9218C137.045 47.8786 137.063 47.8268 137.08 47.7837C137.148 47.5678 137.217 47.3434 137.295 47.1275C137.312 47.0671 137.347 47.0067 137.372 46.9462C137.398 46.903 137.441 46.8685 137.484 46.8685C137.518 46.8599 137.544 46.8599 137.578 46.8599H139.289C139.324 46.8599 139.359 46.8685 139.385 46.8685C139.436 46.8772 139.479 46.903 139.496 46.9462C139.539 47.0498 139.582 47.1621 139.616 47.2656C139.694 47.4815 139.763 47.6974 139.831 47.9218C139.866 47.9995 139.934 48.0513 140.021 48.0599C140.184 48.0599 140.347 48.0599 140.511 48.0599H140.803C140.88 48.0686 140.966 48.0599 141.044 48.0427C141.079 48.034 141.096 47.9995 141.096 47.9736C141.104 47.8786 141.087 47.7923 141.053 47.7146ZM139.058 45.8239C139.032 45.8412 138.998 45.8498 138.963 45.8498C138.593 45.8498 138.215 45.8498 137.845 45.8498H137.836C137.776 45.8412 137.733 45.7807 137.742 45.7116C137.751 45.6685 137.759 45.6167 137.776 45.5735C137.913 45.1591 138.052 44.7448 138.189 44.3217L138.344 43.8555C138.361 43.8123 138.378 43.8037 138.413 43.8209C138.43 43.8296 138.438 43.8383 138.447 43.8469C138.464 43.8728 138.481 43.8986 138.498 43.9246C138.601 44.2267 138.705 44.5376 138.808 44.8483H138.817L139.101 45.729C139.084 45.7721 139.075 45.8067 139.058 45.8239Z" fill="#99C459"/>
<path d="M126.538 45.1335C126.538 44.3134 126.538 43.4932 126.538 42.673C126.538 42.5608 126.529 42.4399 126.529 42.3277C126.52 42.2586 126.469 42.2069 126.409 42.1982C126.099 42.1723 125.789 42.1895 125.48 42.1895C125.463 42.1895 125.445 42.1982 125.428 42.1982C125.394 42.1982 125.325 42.2586 125.325 42.2932C125.317 42.3709 125.308 42.4572 125.308 42.5349C125.308 43.1737 125.308 43.8127 125.308 44.4515C125.308 44.5465 125.308 44.65 125.3 44.745C125.291 44.7969 125.265 44.84 125.214 44.8572C125.171 44.8745 125.119 44.8918 125.076 44.9004C124.655 44.9609 124.233 44.9695 123.812 44.935C123.778 44.935 123.743 44.9263 123.717 44.9177C123.486 44.8745 123.296 44.7191 123.202 44.5033C123.176 44.4429 123.159 44.3825 123.15 44.3134C123.142 44.2011 123.133 44.0802 123.133 43.968C123.133 43.7349 123.133 43.5018 123.133 43.2774C123.133 43.0011 123.133 42.7248 123.133 42.4399C123.133 42.3881 123.124 42.345 123.124 42.2932C123.107 42.2327 123.055 42.1809 122.986 42.1809H122.058C121.971 42.1895 121.911 42.2586 121.911 42.345C121.911 42.8975 121.911 43.4586 121.911 44.0112C121.911 44.1925 121.937 44.3738 121.971 44.5465C122.067 45.0213 122.367 45.4271 122.798 45.6515C123.029 45.7723 123.279 45.8587 123.537 45.8932C123.847 45.9364 124.156 45.9537 124.465 45.9364C124.706 45.9278 124.956 45.9018 125.197 45.8674C125.214 45.8587 125.231 45.8587 125.248 45.8674C125.274 45.8846 125.317 45.9105 125.317 45.9278C125.334 45.9883 125.334 46.0573 125.334 46.1177C125.334 46.558 125.334 46.9983 125.334 47.4472C125.334 47.5767 125.334 47.7062 125.334 47.8357C125.334 47.8702 125.343 47.9048 125.351 47.9307C125.368 47.9739 125.403 48.017 125.454 48.0257C125.781 48.0516 126.108 48.0516 126.426 48.0257C126.494 48.017 126.547 47.9653 126.555 47.8962C126.564 47.8012 126.573 47.6976 126.573 47.6027H126.564C126.538 46.7825 126.538 45.9537 126.538 45.1335Z" fill="#99C459"/>
<path d="M30.1012 42.5606C30.1012 42.4656 30.0926 42.3621 30.0841 42.267C30.0668 42.2239 30.0324 42.1807 29.9895 42.1635C29.9378 42.1549 29.8948 42.1549 29.8433 42.1462C29.5853 42.1462 29.3187 42.1462 29.0608 42.1462H26.5671C26.4725 42.1462 26.3693 42.1549 26.2747 42.1635C26.2403 42.1721 26.2146 42.198 26.2059 42.2239C26.1887 42.267 26.1802 42.3189 26.1715 42.3621C26.1543 42.6728 26.1371 42.9836 26.1285 43.2944C26.1027 43.8038 26.0856 44.3045 26.0856 44.8139C26.0856 44.8829 26.077 44.9433 26.077 45.0124C26.0512 45.2714 26.0168 45.5305 25.9995 45.798C25.9738 45.9966 25.9307 46.1866 25.8792 46.3765C25.8534 46.4715 25.8104 46.5578 25.7587 46.6442C25.6728 46.8082 25.5266 46.9203 25.3547 46.9808L25.1225 47.0499C25.0622 47.0672 25.0107 47.1189 25.0107 47.188C25.0107 47.4212 25.0107 47.6542 25.0107 47.8787C25.0107 47.8959 25.0193 47.9132 25.0278 47.9219C25.0451 47.965 25.0795 47.9996 25.1225 48.0168C25.3804 48.0341 25.647 48.0168 25.8963 47.9564C26.2059 47.8873 26.4725 47.7147 26.6703 47.4729C26.8079 47.2916 26.9196 47.0844 26.9884 46.8686C27.0916 46.5578 27.1604 46.2384 27.1948 45.9103C27.212 45.7463 27.2206 45.5822 27.2464 45.4268C27.255 45.3491 27.2636 45.2628 27.2636 45.1851C27.2808 44.7621 27.2894 44.3304 27.3066 43.9074C27.3151 43.6916 27.341 43.4844 27.3668 43.2686C27.3668 43.234 27.3839 43.2081 27.4012 43.1822C27.427 43.1563 27.4527 43.1477 27.4871 43.1477C27.9085 43.1477 28.3384 43.1477 28.7598 43.1477C28.8028 43.1563 28.8458 43.1908 28.863 43.234C28.8888 43.3463 28.8974 43.4671 28.8888 43.5793C28.8888 44.9089 28.8888 46.2298 28.8888 47.5593C28.8888 47.6715 28.8974 47.7924 28.9059 47.9045C28.9146 47.9736 28.9662 48.0254 29.0349 48.0341H29.9636C29.9809 48.0341 29.998 48.0254 30.0153 48.0254C30.0583 48.0082 30.1012 47.9736 30.1098 47.9219C30.1184 47.8442 30.127 47.7578 30.127 47.6801L30.1185 45.1161C30.1012 44.2614 30.1012 43.4153 30.1012 42.5606Z" fill="#99C459"/>
<path d="M132.317 45.2888C132.248 45.1939 132.188 45.0988 132.145 44.9953C132.136 44.9694 132.136 44.9348 132.145 44.9004C132.171 44.8227 132.214 44.7536 132.257 44.6845C132.729 43.9593 133.203 43.2255 133.675 42.5002C133.718 42.4313 133.761 42.3622 133.795 42.2931C133.804 42.2758 133.804 42.2585 133.804 42.2499C133.795 42.2153 133.778 42.1809 133.752 42.1809C133.348 42.1636 132.936 42.1722 132.532 42.1809C132.515 42.1809 132.498 42.1809 132.489 42.1895C132.463 42.1981 132.428 42.2153 132.411 42.2413C132.351 42.319 132.299 42.4053 132.248 42.483L131.199 44.2011C131.147 44.2874 131.096 44.3651 131.035 44.4514C131.009 44.4946 130.966 44.5204 130.924 44.5291C130.812 44.5464 130.691 44.5464 130.58 44.5291C130.537 44.5118 130.494 44.4773 130.485 44.4341C130.477 44.3564 130.477 44.2701 130.477 44.1924C130.477 43.6485 130.477 43.1132 130.477 42.5693C130.477 42.4916 130.46 42.4053 130.46 42.3276C130.451 42.2585 130.4 42.2067 130.33 42.1981H129.402C129.385 42.1981 129.368 42.2067 129.351 42.2067C129.307 42.2241 129.272 42.2672 129.264 42.3104C129.264 42.3881 129.255 42.4744 129.255 42.5521V45.1076V45.5046C129.255 46.2385 129.255 46.9809 129.255 47.7148C129.255 47.7925 129.264 47.8788 129.272 47.9565C129.29 47.9997 129.333 48.0342 129.376 48.0514C129.488 48.0601 129.608 48.06 129.72 48.06C129.935 48.0688 130.141 48.0601 130.356 48.0514C130.382 48.0514 130.46 47.991 130.46 47.9565C130.468 47.8788 130.477 47.7925 130.477 47.7148C130.477 47.1709 130.477 46.6356 130.477 46.0918C130.477 45.9967 130.485 45.8932 130.485 45.7981C130.494 45.7291 130.545 45.6773 130.605 45.66C130.674 45.6514 130.735 45.6514 130.804 45.6514C130.872 45.6514 130.932 45.6514 131.001 45.6514C131.087 45.6514 131.165 45.686 131.208 45.755C131.302 45.8932 131.388 46.0313 131.474 46.1694C131.835 46.7392 132.188 47.309 132.54 47.8788C132.601 47.9997 132.721 48.0688 132.859 48.0688C133.186 48.0688 133.512 48.0688 133.839 48.0688C133.891 48.0688 133.933 48.06 133.985 48.06C133.985 48.0342 134.011 47.9997 134.011 47.9651C133.959 47.827 133.882 47.6975 133.795 47.5853C133.288 46.7997 132.799 46.0399 132.317 45.2888Z" fill="#99C459"/>
<path d="M112.066 43.7953C112.057 43.7263 112.049 43.6658 112.031 43.6055C111.885 43.0356 111.481 42.5781 110.939 42.3709C110.681 42.2672 110.415 42.1982 110.131 42.1895C110.002 42.1809 109.872 42.1809 109.735 42.1809H107.972C107.895 42.1809 107.809 42.1895 107.731 42.1895C107.671 42.2069 107.62 42.2586 107.611 42.319C107.603 42.4141 107.603 42.5176 107.603 42.6126C107.603 43.4327 107.603 44.2529 107.603 45.073C107.603 45.9278 107.603 46.7739 107.603 47.6285C107.603 47.7235 107.62 47.8271 107.62 47.9221C107.629 47.9911 107.68 48.0429 107.749 48.0516H108.678C108.695 48.0516 108.712 48.0429 108.729 48.0429C108.772 48.0256 108.806 47.9911 108.823 47.9393C108.832 47.8098 108.84 47.6803 108.84 47.5508C108.84 47.1278 108.84 46.6961 108.84 46.2731C108.84 46.204 108.849 46.1436 108.866 46.0832C108.875 46.0486 108.901 46.0314 108.936 46.0227C109.167 45.9969 109.4 45.9969 109.624 46.0055C109.951 46.0141 110.277 45.9795 110.595 45.9191C110.93 45.8587 111.248 45.7119 111.515 45.4961C111.85 45.2198 112.057 44.8227 112.091 44.3997C112.091 44.1839 112.091 43.9939 112.066 43.7953ZM110.81 44.4774C110.75 44.65 110.63 44.7968 110.466 44.8745C110.337 44.9436 110.191 44.9781 110.045 44.9867C109.675 44.9953 109.297 45.004 108.927 44.9781C108.901 44.9781 108.84 44.9263 108.832 44.8745C108.823 44.8227 108.815 44.7795 108.815 44.7277C108.815 44.5033 108.815 44.2702 108.815 44.0457C108.815 43.804 108.815 43.5536 108.815 43.3119C108.815 43.2774 108.823 43.2428 108.84 43.2169C108.858 43.1911 108.884 43.1737 108.919 43.1565C108.953 43.1479 108.979 43.1392 109.013 43.1479C109.305 43.1479 109.598 43.1479 109.889 43.1479C110.053 43.1479 110.216 43.1824 110.363 43.2515C110.56 43.3378 110.716 43.5018 110.793 43.709C110.896 43.9594 110.896 44.227 110.81 44.4774Z" fill="#99C459"/>
<path d="M94.9362 43.5018C95.0736 43.2946 95.2891 43.1564 95.5379 43.1132C95.7786 43.0701 96.0283 43.0787 96.269 43.1392C96.3211 43.1478 96.3633 43.1651 96.4064 43.1823C96.622 43.2687 96.7855 43.45 96.8537 43.6744C96.8968 43.7953 96.9229 43.9248 96.957 44.0543C96.9831 44.0974 97.0262 44.132 97.0693 44.1406C97.3953 44.1579 97.7222 44.1579 98.0492 44.1406C98.0833 44.132 98.1093 44.1148 98.1264 44.0888C98.1435 44.0629 98.1524 44.0284 98.1524 43.9939C98.1354 43.8471 98.1093 43.7004 98.0492 43.5622C97.8947 43.0183 97.5076 42.5694 97.0001 42.3276C96.6732 42.1809 96.3211 42.0946 95.9682 42.0773C95.7364 42.0687 95.5128 42.0859 95.2891 42.1378C94.8679 42.2154 94.4808 42.4226 94.1799 42.7248C93.8791 43.0269 93.6635 43.4068 93.5351 43.8125C93.4578 44.0457 93.4488 44.296 93.3887 44.5292C93.3887 44.6586 93.3797 44.8053 93.3797 44.9262C93.3797 45.0385 93.3887 45.1594 93.3797 45.2716C93.3716 45.5478 93.4057 45.8241 93.4659 46.1004C93.518 46.3939 93.6123 46.6702 93.7587 46.9292C94.0165 47.4299 94.4548 47.8097 94.9883 47.9911C95.2371 48.0688 95.4957 48.1119 95.7535 48.1292C95.9852 48.1465 96.2089 48.086 96.4325 48.0601C96.5448 48.0428 96.6561 48.0169 96.7594 47.9651C97.5758 47.6716 98.0231 47.0846 98.1435 46.2213C98.1435 46.1867 98.1435 46.1522 98.1183 46.1263C98.0923 46.1004 98.0662 46.0831 98.0321 46.0831C97.7052 46.0658 97.3782 46.0658 97.0513 46.0831C97.0001 46.0918 96.957 46.1176 96.9399 46.1608C96.9139 46.273 96.8888 46.3853 96.8537 46.4888C96.7594 46.7911 96.5016 47.0241 96.1828 47.0673C95.9771 47.1104 95.7616 47.1104 95.5469 47.0846C95.2631 47.05 95.0134 46.886 94.876 46.6356C94.7988 46.5148 94.7386 46.3767 94.7125 46.2299C94.6524 45.9536 94.6182 45.6774 94.6093 45.4011V45.0816C94.6012 44.745 94.6272 44.4083 94.6955 44.0716C94.7386 43.8816 94.8158 43.6831 94.9362 43.5018Z" fill="#99C459"/>
<path d="M101.808 43.7779C101.842 43.7002 101.876 43.6311 101.919 43.562C102.066 43.3203 102.315 43.1563 102.59 43.1131C102.797 43.0786 103.011 43.0872 103.227 43.1304C103.511 43.1735 103.743 43.3635 103.854 43.6225C103.889 43.7002 103.914 43.7779 103.932 43.8555C103.94 43.9074 103.949 43.9505 103.957 44.0023C103.966 44.0886 104.035 44.1491 104.121 44.1491C104.413 44.1491 104.705 44.1491 105.006 44.1491C105.041 44.1491 105.066 44.1404 105.101 44.1318C105.145 44.1146 105.17 44.0628 105.179 44.0195C105.101 43.2512 104.62 42.5865 103.914 42.2757C103.622 42.1634 103.321 42.0944 103.011 42.0771C102.737 42.0599 102.453 42.0857 102.186 42.1634C101.756 42.2671 101.37 42.5088 101.077 42.8455C100.785 43.1995 100.586 43.6225 100.501 44.08C100.432 44.3649 100.398 44.6584 100.415 44.9606C100.415 45.1592 100.415 45.3577 100.415 45.5477C100.415 45.6167 100.415 45.6772 100.423 45.7462C100.449 45.9102 100.475 46.0656 100.518 46.2297C100.595 46.6009 100.759 46.9463 100.983 47.2484C101.231 47.5765 101.567 47.8268 101.954 47.9649C102.092 48.0081 102.238 48.0513 102.376 48.0686C102.667 48.129 102.96 48.129 103.252 48.0772C103.295 48.0686 103.347 48.0686 103.399 48.06C103.725 48.0168 104.035 47.8959 104.301 47.7146C104.809 47.3693 105.136 46.8081 105.17 46.1865C105.162 46.1347 105.127 46.1002 105.075 46.0916C104.748 46.0742 104.422 46.083 104.096 46.0916C104.026 46.1002 103.974 46.1433 103.957 46.2038C103.94 46.3678 103.889 46.5232 103.812 46.67C103.743 46.7995 103.639 46.9117 103.502 46.9807C103.399 47.0326 103.295 47.0758 103.184 47.093C102.985 47.1275 102.797 47.1275 102.599 47.1016C102.332 47.0758 102.1 46.929 101.945 46.7132C101.876 46.6182 101.825 46.5146 101.791 46.4023C101.722 46.2124 101.688 46.0225 101.679 45.8239C101.662 45.6599 101.662 45.4958 101.679 45.3318C101.688 45.2369 101.688 45.1333 101.679 45.0383C101.679 44.9865 101.679 44.9433 101.679 44.8916C101.653 44.6757 101.662 44.4599 101.696 44.2527C101.705 44.0886 101.748 43.9332 101.808 43.7779Z" fill="#99C459"/>
</g>
</g>
<defs>
<clipPath id="clip0_2_342">
<rect width="149.991" height="48.5" fill="white" transform="translate(0.00463867 0.421875)"/>
</clipPath>
</defs>
</svg>
