<svg xmlns="http://www.w3.org/2000/svg" width="167" height="54" viewBox="0 0 167 54" fill="none"><path d="M68.3073 14.0594C68.2116 13.9636 68.135 13.8583 68.0584 13.7435C67.4744 12.9489 66.699 12.317 65.7991 11.9149C65.4736 11.7713 65.1385 11.6564 64.7939 11.5703C64.5737 11.5128 64.3439 11.465 64.1141 11.4267C63.9131 11.3884 63.712 11.3788 63.5014 11.3979C63.4919 11.3979 63.4727 11.4075 63.4727 11.4075C63.4631 11.4362 63.4727 11.465 63.5014 11.465L63.7982 11.5894C65.1289 12.1351 66.2969 12.9871 67.2255 14.0881C67.7712 14.7104 68.2212 15.4188 68.5658 16.1751C68.585 16.2134 68.5945 16.2517 68.6041 16.29C68.6137 16.3187 68.5945 16.3474 68.5754 16.357C68.5658 16.3666 68.5467 16.357 68.5371 16.3474C68.5084 16.3379 68.4892 16.3187 68.4701 16.3092C68.3552 16.2134 68.2212 16.1464 68.068 16.1177C67.8191 16.0602 67.5606 16.0028 67.3117 15.9549C66.833 15.8688 66.3448 15.8018 65.8661 15.706C65.598 15.6582 65.3395 15.5911 65.0811 15.505C64.4492 15.2848 63.8748 14.921 63.4057 14.4519C63.0323 14.0785 62.6973 13.6669 62.4101 13.2169C62.2664 12.9967 62.142 12.7765 61.9984 12.5563C61.7591 12.1638 61.5197 11.7713 61.2804 11.3692C61.0219 10.9384 60.7347 10.5268 60.4092 10.1438C60.39 10.1247 60.2273 9.94278 60.1986 9.90448C60.1699 9.86619 60.4188 9.96192 60.5432 10.0002C60.7251 10.0577 60.907 10.096 61.0985 10.1342C61.29 10.163 61.4814 10.163 61.6633 10.1438C61.9601 10.096 62.2473 10.0385 62.5441 9.96193C62.8313 9.88534 63.1185 9.80875 63.4057 9.74173C63.712 9.67472 64.028 9.646 64.3343 9.65557C64.3726 9.65557 64.4109 9.66515 64.4588 9.66515C64.9183 9.68429 65.3683 9.8279 65.7704 10.0672C66.0097 10.2013 66.2299 10.364 66.4213 10.5459C66.6224 10.7278 66.8043 10.9288 66.967 11.149C67.2255 11.4841 67.4457 11.8383 67.6372 12.2213C67.8861 12.7095 68.0967 13.2073 68.269 13.7147C68.2978 13.7626 68.3935 14.0785 68.3073 14.0594Z" fill="#4F429B"></path><path d="M78.3691 12.2787C78.3595 12.2213 78.3499 12.1734 78.3499 12.116C78.3308 11.9532 78.2925 11.7905 78.2255 11.6469C78.2159 11.6181 78.1872 11.6086 78.1584 11.6086C78.1489 11.6086 78.1297 11.6181 78.1202 11.6277C78.1106 11.6373 78.101 11.6469 78.0914 11.6564C78.0723 11.6852 78.0436 11.7234 78.0244 11.7617C77.8042 12.0777 77.4979 12.317 77.1341 12.451C76.9426 12.5276 76.7511 12.5851 76.5597 12.6425C76.1193 12.7765 75.6789 12.9106 75.2385 13.0446C74.9992 13.1116 74.7694 13.1882 74.5397 13.2839C74.1759 13.4275 73.8408 13.6669 73.5823 13.9636C73.4674 14.0977 73.3621 14.2413 73.2664 14.3849C73.0845 14.6817 72.9313 15.0072 72.826 15.3422C72.759 15.5528 72.7207 15.7635 72.6824 15.9741C72.6728 16.089 72.6728 16.3283 72.7303 16.2134C72.7973 16.0985 73.0462 15.6677 73.2089 15.4571C73.5632 14.988 74.0131 14.5955 74.5205 14.3083C74.7503 14.1838 74.98 14.0785 75.229 14.0019C75.5162 13.9062 75.7938 13.8105 76.081 13.7147C76.1193 13.7052 77.0575 13.3031 77.2011 13.2073C77.3351 13.1116 77.5936 12.9106 77.5936 12.9106C77.5936 12.9106 77.3256 13.2169 77.2107 13.3222C77.0958 13.4275 76.3586 13.8392 76.3108 13.8583C76.0427 13.9636 75.7842 14.0785 75.5162 14.1838C75.2864 14.2796 75.0662 14.3849 74.8556 14.4998C74.6737 14.5955 74.5014 14.7104 74.3482 14.8348C74.1854 14.9784 74.0227 15.122 73.8791 15.2848C73.5057 15.6964 73.1898 16.156 72.9409 16.6634C72.7877 16.9697 72.6633 17.2856 72.5388 17.6016C72.5292 17.6303 72.3856 17.9845 72.3761 18.0228C72.3665 18.0611 72.3186 18.042 72.2995 18.0132C72.2707 17.9462 72.2516 17.8888 72.2229 17.8218C72.1559 17.6399 72.0793 17.4675 72.0218 17.2856C71.8591 16.8165 71.8112 16.3091 71.8782 15.8113C71.9261 15.5145 72.0218 15.2273 72.1559 14.9593C72.242 14.787 72.3473 14.6242 72.4526 14.471C72.6154 14.2317 72.7877 14.0115 72.9696 13.7913C73.2951 13.3892 73.6398 13.0063 73.9748 12.6138C74.1184 12.451 74.262 12.2883 74.3961 12.116C74.779 11.6564 75.0949 11.149 75.3438 10.6033C75.6023 10.0385 75.7651 9.42581 75.8225 8.80353C75.8321 8.72694 75.8417 8.64078 75.8512 8.56419C75.88 8.33443 75.88 8.10466 75.8608 7.8749C75.8321 7.53983 75.8034 7.20475 75.7364 6.86968C75.6023 6.13252 75.3726 5.42408 75.0662 4.74437C74.6354 3.80616 74.061 2.94455 73.3621 2.17867C72.96 1.72872 72.4909 1.35535 71.974 1.05857C71.9261 1.02985 71.8782 1.00113 71.8399 0.97241C71.8208 0.953263 71.8112 0.924542 71.8112 0.905396H71.5623C71.5815 0.97241 71.6102 1.02985 71.6293 1.09687C71.6485 1.17345 71.658 1.25961 71.6772 1.3362C71.7442 1.68085 71.7538 2.04464 71.6963 2.38929C71.6293 2.79137 71.5144 3.18389 71.3517 3.55725C71.1889 3.93062 70.9975 4.29441 70.7869 4.63906C70.5954 4.95498 70.3943 5.26134 70.2029 5.56769C70.0114 5.87404 69.7912 6.20911 69.5902 6.52504C69.3125 6.95584 69.0636 7.41537 68.8434 7.8749C68.6711 8.22912 68.5371 8.60248 68.4318 8.97585C68.2786 9.51197 68.2116 10.0672 68.2307 10.6225C68.2403 10.814 68.269 11.0054 68.2977 11.1873C68.3456 11.5511 68.4222 11.9149 68.5179 12.2596C68.7764 13.1595 69.1881 14.0115 69.7338 14.7774C69.8008 14.8731 70.0784 15.2656 70.0976 15.2273C70.1167 15.189 69.9348 14.5476 69.8965 14.3657C69.8008 13.9541 69.7433 13.5424 69.7051 13.1212C69.6572 12.5946 69.6476 12.0681 69.6763 11.532C69.7051 11.1012 69.7816 10.6704 69.8965 10.2491C70.0593 9.67472 70.2795 9.11945 70.5475 8.59291C70.6815 8.33443 70.8156 8.08552 70.9496 7.83661C71.1889 7.37708 71.4379 6.92712 71.6772 6.4676C71.7921 6.25698 71.8974 6.03679 72.0027 5.8166C72.2707 5.24219 72.4622 4.62948 72.558 3.99763C72.5771 3.94977 72.5962 3.50939 72.6345 3.48067C72.6824 3.4328 72.7111 3.94019 72.7111 3.94019C72.7303 4.47631 72.6633 5.01242 72.5101 5.51982C72.3856 5.95063 72.2229 6.37186 72.0314 6.77395C71.7251 7.42494 71.4283 8.07594 71.1219 8.72694C71.0453 8.89926 70.9688 9.07159 70.9017 9.25348C70.739 9.66514 70.6145 10.1055 70.5379 10.5459C70.4805 10.8714 70.4422 11.1873 70.4326 11.5128C70.4231 11.8958 70.4326 12.2691 70.4518 12.6521C70.4518 12.7095 70.4518 12.7574 70.4614 12.8148C70.5092 13.1499 70.5284 13.4945 70.5858 13.82C70.6433 14.1455 70.7103 14.5189 70.7964 14.854C70.9496 15.4475 71.1411 16.0219 71.3613 16.5964C71.5815 17.1516 71.8208 17.6973 72.0697 18.243C72.0889 18.2813 72.108 18.31 72.1271 18.3483C72.1463 18.3866 72.1846 18.4057 72.2229 18.4153C72.2995 18.4345 72.3856 18.4345 72.4622 18.4153C72.5484 18.3196 72.558 18.1377 72.5962 18.0037C72.6441 17.8505 72.7111 17.7069 72.7973 17.5728C72.9792 17.2952 73.2472 17.0846 73.5536 16.9793C73.6685 16.941 73.7834 16.9027 73.9078 16.8836C74.1184 16.8453 74.3386 16.8165 74.5588 16.7974C74.7886 16.7782 75.0183 16.74 75.2481 16.7208C75.4204 16.7017 75.5927 16.6634 75.7651 16.6155C76.4927 16.424 77.1341 15.9741 77.5649 15.3518C77.7372 15.1029 77.8808 14.8444 77.9957 14.5668C78.235 13.9924 78.3691 13.3701 78.3978 12.7478C78.3978 12.6042 78.3882 12.4415 78.3691 12.2787Z" fill="#4F429B"></path><path d="M28.5481 29.5876C28.6055 30.0758 28.6917 30.5545 28.8161 31.0236C29.0268 31.8373 29.3235 32.6319 29.7256 33.3787C30.2235 34.3169 30.8553 35.1785 31.602 35.9348C32.8945 37.2464 34.4358 38.2803 36.1399 38.9792C36.5803 39.1611 37.0302 39.3142 37.4802 39.4483C37.9205 39.5823 38.3705 39.678 38.8204 39.7738C39.0023 39.8121 39.1938 39.8408 39.3853 39.8695C39.5097 39.8791 39.6246 39.8982 39.7491 39.9269C40.0746 39.9652 40.4001 40.0035 40.7256 40.0227C41.2138 40.061 41.7021 40.061 42.1903 40.061H48.7577C48.9205 40.061 49.0832 40.061 49.246 40.061C49.5428 40.0514 49.8395 40.0322 50.1363 39.9748C50.5671 39.8982 50.9884 39.7929 51.4 39.6493C53.2956 38.96 54.8082 37.4953 55.5549 35.6284C55.7847 35.0732 55.9283 34.4892 56.0049 33.8956C56.0144 33.8095 56.024 33.7329 56.0336 33.6563C56.0623 33.4648 56.0623 33.2734 56.0527 33.0819C56.0527 33.0627 55.9953 33.0053 55.9666 33.0053C55.8325 32.9862 55.6985 32.9862 55.5549 32.9957H43.1572C42.9658 32.9957 42.7743 32.9862 42.5828 32.9957C42.3243 32.9957 42.0659 32.9479 41.817 32.9287C41.4053 32.8617 40.9936 32.7372 40.6107 32.5745C39.7204 32.1916 38.9545 31.5597 38.3992 30.7651C37.9014 30.0758 37.6046 29.2621 37.5376 28.4196C37.5376 28.3622 37.528 28.3143 37.5185 28.2568C37.4897 28.0941 37.4802 27.9313 37.4897 27.7686C37.4993 27.3857 37.5376 27.0123 37.6142 26.6389C37.7099 26.1698 37.8822 25.7294 38.1312 25.3178C38.6386 24.4753 39.3949 23.8052 40.2948 23.4031C40.8022 23.1733 41.3479 23.0297 41.9031 22.9723C41.9606 22.9723 42.0084 22.9627 42.0659 22.9531C42.2095 22.9244 42.3626 22.9148 42.5158 22.9148H46.7952C46.8335 22.9148 46.8813 22.9148 46.9196 22.9244C46.9483 22.934 46.9579 22.9627 46.9483 22.9914C46.9196 23.0776 46.8622 23.1637 46.8047 23.2308C45.4453 25.1072 44.0763 26.9931 42.7073 28.8791L41.4149 30.6598C41.3766 30.7172 41.3383 30.7747 41.3096 30.8321C41.3 30.8608 41.3096 30.8896 41.3287 30.9087C41.3479 30.9279 41.3766 30.9374 41.4053 30.9374C41.5393 30.9374 41.6734 30.947 41.817 30.947H49.1215C49.5045 30.947 49.8874 30.947 50.2608 30.947C50.3278 30.947 50.3948 30.947 50.4618 30.9374C50.5001 30.9374 50.5384 30.9183 50.5671 30.8896C50.6054 30.8417 50.6533 30.7843 50.6916 30.7268L51.333 29.7886L55.2486 24.0732C55.4975 23.719 55.7368 23.3552 55.9857 22.9914C56.0144 22.9436 56.0336 22.8957 56.0336 22.8383C56.0336 22.8095 56.0336 22.7808 56.0336 22.7521C56.0336 21.8713 56.0336 20.981 56.0336 20.1002C56.0336 19.8705 56.0144 19.6407 55.9666 19.4109C55.9187 19.0854 55.823 18.7791 55.6985 18.4727C55.0858 17.0176 53.736 16.0219 52.1659 15.8687C51.9266 15.8496 51.6776 15.84 51.4287 15.84H42.3818C41.9606 15.84 41.5393 15.8496 41.1181 15.8783C40.9458 15.8879 40.7639 15.8879 40.5915 15.9166C40.2852 15.9645 39.9693 15.9836 39.6629 16.0411C39.2608 16.0985 38.8587 16.1847 38.4662 16.29C37.0685 16.6346 35.7282 17.209 34.5124 17.9845C33.6508 18.5302 32.8466 19.162 32.1094 19.8705C31.5542 20.397 31.0468 20.9618 30.5872 21.565C30.0416 22.2734 29.582 23.0584 29.2278 23.8818C28.9502 24.5328 28.7396 25.2029 28.6055 25.9018C28.5385 26.2464 28.4906 26.6006 28.4524 26.9549C28.4332 27.2133 28.4236 27.4718 28.4141 27.7303C28.4141 27.8069 28.4141 27.8931 28.4141 27.9696C28.4715 28.5058 28.4619 29.0514 28.5481 29.5876Z" fill="#2F7D40"></path><path d="M110.21 29.5397C110.449 31.1863 111.043 32.766 111.962 34.1541C112.728 35.3412 113.666 36.4135 114.738 37.3421C115.408 37.9261 116.136 38.4239 116.912 38.8451C117.859 39.3525 118.874 39.7068 119.937 39.9078C120.377 39.994 120.827 40.0418 121.267 40.0705C121.488 40.0801 121.698 40.0801 121.918 40.0801C122.703 40.0801 123.498 40.0801 124.283 40.0801C124.408 40.0801 124.532 40.0801 124.647 40.0705C124.81 40.061 124.972 40.0323 125.126 39.9844C125.805 39.7929 126.37 39.3238 126.686 38.7015C126.878 38.3377 126.983 37.9357 126.983 37.524C126.992 36.873 126.983 36.222 126.983 35.5614C126.983 35.437 126.964 35.3221 126.945 35.1976C126.887 34.7956 126.724 34.403 126.485 34.0775C126.045 33.4648 125.346 33.0723 124.589 33.0149C124.465 33.0053 124.341 33.0053 124.226 32.9957C123.871 32.9862 123.517 32.9479 123.173 32.8809C122.771 32.8043 122.388 32.6702 122.014 32.4979C121.287 32.1533 120.655 31.6459 120.167 31.014C119.707 30.4492 119.401 29.7886 119.247 29.0802C119.2 28.8696 119.171 28.6494 119.152 28.4388C119.133 28.276 119.123 28.1133 119.123 27.9505C119.123 27.5197 119.171 27.0793 119.267 26.6581C119.372 26.1794 119.554 25.7199 119.812 25.3082C120.214 24.6572 120.76 24.1115 121.411 23.7094C121.775 23.4893 122.158 23.3169 122.56 23.1829C123 23.0585 123.46 22.9723 123.919 22.934C123.958 22.934 124.005 22.934 124.044 22.934H124.455H128.448C128.543 22.934 128.639 22.934 128.735 22.934C128.764 22.934 128.792 22.934 128.811 22.9531C128.84 22.9627 128.859 22.9819 128.869 23.0106C128.888 23.0776 128.898 23.1446 128.888 23.2116V31.6937C128.888 32.1245 128.907 32.5649 128.965 32.9957C129.022 33.4361 129.127 33.8765 129.261 34.3073C130.085 36.94 132.172 38.9887 134.824 39.7642C135.264 39.8887 135.723 39.9844 136.183 40.0418C136.451 40.0706 136.729 40.0897 136.997 40.0801C137.006 40.0801 137.025 40.0801 137.035 40.0705C137.092 40.0705 137.131 40.0227 137.14 39.9652C137.14 39.8121 137.15 39.6685 137.15 39.5153V16.3857C137.15 16.2613 137.15 16.1368 137.15 16.0219C137.15 15.9932 137.14 15.9645 137.14 15.9453C137.121 15.9071 137.092 15.8783 137.064 15.8592C136.93 15.84 136.796 15.84 136.652 15.8496C131.865 15.8496 127.079 15.8496 122.292 15.8496C121.861 15.8496 121.421 15.8688 120.99 15.8975C120.502 15.9262 120.013 15.9932 119.535 16.0985C118.826 16.2421 118.137 16.4527 117.467 16.7208C116.213 17.2282 115.073 17.9558 114.078 18.8748C113.283 19.612 112.575 20.4545 111.981 21.3639C110.88 23.0297 110.239 24.954 110.114 26.9453C110.105 27.0506 110.095 27.1655 110.095 27.2708C110.076 27.5867 110.066 27.8931 110.086 28.209C110.114 28.6494 110.143 29.0898 110.21 29.5397Z" fill="#2F7D40"></path><path d="M58.503 23.853C58.503 26.1124 58.503 28.3622 58.503 30.6215C58.4838 31.0427 58.5126 31.464 58.57 31.8852C58.5891 32.0863 58.6083 32.2873 58.6466 32.4883C58.7136 32.9 58.8189 33.3117 58.9529 33.7137C59.3742 34.9392 60.0539 36.0593 60.9634 36.9879C61.3463 37.39 61.7675 37.7633 62.2079 38.0984C63.06 38.759 64.0173 39.2568 65.0417 39.6014C65.6065 39.7929 66.2001 39.9269 66.7936 39.994C66.8319 39.994 66.8702 40.0035 66.9181 40.0131C67.0234 40.0418 67.1287 40.0514 67.2436 40.0514C67.5786 40.0801 67.9233 40.0801 68.2584 40.0801C73.0164 40.0801 77.7744 40.0801 82.5324 40.0801C82.6282 40.0801 82.7239 40.0801 82.8197 40.0801C82.8484 40.0801 82.8771 40.0705 82.8962 40.061C82.9154 40.0514 82.9345 40.0323 82.9441 40.0035C82.9633 39.8695 82.9633 39.7355 82.9633 39.6014C82.9633 35.7242 82.9633 31.8565 82.9633 27.9792C82.9633 24.1211 82.9633 20.2534 82.9633 16.3953C82.9633 16.2613 82.9633 16.1272 82.9633 15.9836C82.9537 15.9262 82.9058 15.8879 82.8579 15.8783H82.8197C82.4367 15.8879 82.0633 15.9166 81.6804 15.9741C81.3453 16.0219 81.0103 16.0985 80.6752 16.1943C77.5255 17.1133 75.2087 19.8035 74.7875 23.068C74.7683 23.202 74.7588 23.3361 74.7396 23.4701C74.73 23.5946 74.73 23.719 74.73 23.8339C74.73 26.7059 74.73 29.5684 74.73 32.4405C74.73 32.5649 74.73 32.6894 74.73 32.8043C74.73 32.8426 74.7205 32.8809 74.7205 32.9287C74.7109 32.967 74.6822 32.9957 74.6439 33.0149C74.5864 33.0245 74.5386 33.0245 74.4811 33.034C73.0834 33.034 71.6857 33.034 70.2784 33.034C69.9912 33.034 69.704 33.0245 69.4263 32.9862C69.1391 32.9479 68.8615 32.8809 68.5934 32.7851C68.2488 32.6607 67.9329 32.4692 67.6648 32.2107C67.4063 31.9618 67.2053 31.665 67.0808 31.3299C66.9468 31.0044 66.8606 30.6598 66.8128 30.3056C66.8032 30.1811 66.7936 30.0662 66.7649 29.9418C66.7362 29.7982 66.7266 29.645 66.7362 29.4918C66.7362 29.4344 66.7362 29.3865 66.7362 29.3291C66.7362 27.6154 66.7362 25.9018 66.7362 24.1881C66.7362 23.9201 66.7266 23.6424 66.6979 23.3744C66.6596 22.8861 66.5734 22.4074 66.449 21.9383C65.5012 18.4823 62.4281 16.0315 58.8476 15.8783C58.7806 15.8783 58.7136 15.8783 58.6466 15.8783C58.6179 15.8783 58.5891 15.8879 58.57 15.8975C58.5508 15.907 58.5317 15.9262 58.5221 15.9549C58.503 16.0794 58.4934 16.1943 58.503 16.3187C58.503 18.8174 58.503 21.3352 58.503 23.853Z" fill="#2F7D40"></path><path d="M85.3284 21.2108C85.6156 21.7852 86.0752 22.2543 86.6496 22.5606C87.0421 22.7712 87.4825 22.8957 87.9324 22.9244C88.0952 22.934 88.2579 22.934 88.4207 22.934C88.5451 22.934 88.6696 22.9436 88.7845 22.9627C88.8419 22.9723 88.8898 22.9819 88.9472 22.9914C89.11 23.0106 89.2727 23.0393 89.4259 23.0776C90.2013 23.2499 90.9194 23.6137 91.5033 24.1498C92.1352 24.7147 92.6043 25.4422 92.8628 26.2464C93.0255 26.7442 92.9968 26.6868 93.1021 27.3569C93.1404 27.5197 93.15 27.6824 93.1308 27.8452C93.1213 28.0079 93.1213 28.1707 93.1404 28.3334C93.15 28.4005 93.15 28.4675 93.1404 28.5345C93.1213 28.6302 93.1021 28.7164 93.1021 28.8121C93.1117 28.927 93.0542 29.0227 93.0447 29.128C93.0064 29.3674 92.9394 29.6067 92.8532 29.8365C92.6809 30.3439 92.4224 30.8034 92.0777 31.2151C91.6469 31.7225 91.1204 32.1437 90.5173 32.4405C89.962 32.7181 89.3493 32.9 88.727 32.9574C88.4973 32.9862 88.2675 33.0053 88.0377 33.0053C87.9037 33.0053 87.7697 33.0244 87.6261 33.034C87.4059 33.0532 87.1953 33.0915 86.9942 33.1681C85.9794 33.5031 85.2231 34.3743 85.0412 35.437C85.0221 35.5327 85.0125 35.6284 85.0125 35.7242C85.0125 35.8486 85.0125 35.9731 85.0125 36.088C85.0125 37.2847 85.0125 38.4813 85.0125 39.678C85.0125 39.7833 85.0125 39.8982 85.0221 40.0035C85.0317 40.0322 85.0508 40.0514 85.0699 40.061C85.1657 40.0801 85.2614 40.0897 85.3572 40.0801H90.0099C90.1439 40.0801 90.2779 40.0801 90.4215 40.0801C90.8045 40.0705 91.1778 40.0227 91.5512 39.9557C91.8001 39.8886 92.0586 39.8408 92.2979 39.7642C92.566 39.678 92.8436 39.5919 93.1021 39.4866C93.7627 39.2281 94.385 38.9026 94.9689 38.5005C95.821 37.9356 96.5198 37.1602 96.9985 36.2507C97.0081 36.2316 97.0272 36.2029 97.0464 36.1837C97.0751 36.155 97.123 36.1646 97.1517 36.1933C97.19 36.2507 97.2187 36.3082 97.257 36.3656C97.5346 36.8347 97.8793 37.2655 98.2718 37.6389C98.5494 37.9069 98.8366 38.1463 99.1526 38.3665C99.9854 38.9504 100.905 39.41 101.881 39.7163C102.206 39.8216 102.532 39.8982 102.867 39.9557C103.145 40.0131 103.432 40.0514 103.719 40.061C103.911 40.061 104.102 40.0705 104.294 40.0801H109.023C109.08 40.0801 109.128 40.0801 109.186 40.0705C109.243 40.061 109.281 40.0131 109.291 39.9652C109.291 39.8599 109.3 39.745 109.3 39.6397C109.3 38.5579 109.3 37.4666 109.3 36.3752C109.3 36.1167 109.291 35.8582 109.272 35.5997C109.262 35.4465 109.233 35.3029 109.186 35.1593C109.023 34.5754 108.688 34.0584 108.219 33.685C107.759 33.2925 107.185 33.0723 106.582 33.034C106.448 33.0244 106.314 33.0149 106.17 33.0149C105.653 33.0053 105.136 32.9287 104.638 32.7947C103.786 32.5553 103.001 32.0958 102.388 31.464C102.063 31.1385 101.795 30.7555 101.594 30.3343C101.354 29.8269 101.201 29.2908 101.153 28.7355C101.153 28.6972 101.153 28.6589 101.144 28.6111C101.106 28.4675 101.096 28.3143 101.106 28.1707C101.106 28.0175 101.106 27.8739 101.106 27.7207C101.106 27.6633 101.106 27.6154 101.115 27.558C101.144 27.4527 101.153 27.3474 101.163 27.2325C101.192 26.9644 101.249 26.6964 101.335 26.4379C101.642 25.3561 102.321 24.4179 103.25 23.7765C103.853 23.3552 104.552 23.0776 105.28 22.9914C105.414 22.9723 105.548 22.9436 105.682 22.934C105.816 22.9244 105.978 22.9244 106.132 22.9244C106.199 22.9244 106.266 22.9148 106.333 22.9148C106.553 22.8957 106.763 22.867 106.974 22.8095C107.836 22.5702 108.554 21.9671 108.956 21.1725C109.119 20.8757 109.214 20.5406 109.253 20.2055C109.281 19.9471 109.291 19.6886 109.291 19.4301C109.291 18.3674 109.291 17.3048 109.291 16.2517C109.291 16.1847 109.291 16.1177 109.291 16.0506C109.291 16.0219 109.281 15.9932 109.281 15.9645C109.272 15.907 109.224 15.8687 109.166 15.8592C109.061 15.8592 108.946 15.8496 108.841 15.8496H103.824C103.719 15.8496 103.604 15.8496 103.499 15.8496C103.068 15.8592 102.628 15.907 102.207 16.0028C101.699 16.1177 101.211 16.29 100.751 16.5197C99.9472 16.9218 99.21 17.4388 98.559 18.0611C98.109 18.4919 97.707 18.9801 97.3527 19.4971L97.1421 19.7939C97.1134 19.8226 97.0655 19.8226 97.0368 19.7939C96.9889 19.7173 96.9315 19.6311 96.8836 19.5545C96.539 18.9993 96.1273 18.4919 95.6487 18.0419C95.0647 17.4962 94.4137 17.0271 93.7052 16.6442C93.1787 16.357 92.6139 16.1464 92.0299 16.0124C91.8288 15.9645 91.6278 15.9262 91.4267 15.8975C91.0725 15.8592 90.7183 15.84 90.3641 15.84C89.6174 15.84 88.8706 15.84 88.1239 15.84H85.3093C85.2327 15.8305 85.1465 15.84 85.0699 15.8592C85.0412 15.8687 85.0221 15.8879 85.0125 15.9166C85.0029 15.9453 85.0029 15.9645 85.0029 15.9932C85.0029 17.3431 85.0029 18.6834 85.0029 20.0332C85.0029 20.1577 85.0125 20.2821 85.0412 20.397C85.1082 20.6842 85.204 20.9523 85.3284 21.2108Z" fill="#2F7D40"></path><path d="M139.706 39.9557C139.725 40.0035 139.763 40.0418 139.821 40.0514C139.849 40.0514 139.878 40.0514 139.897 40.0514C140.146 40.061 140.386 40.0323 140.634 40.0227C140.836 39.9748 141.037 39.9652 141.238 39.9269C141.467 39.8791 141.688 39.8312 141.908 39.7642C142.099 39.7068 142.3 39.6397 142.492 39.5727C144.914 38.7015 146.79 36.7486 147.566 34.2977C147.709 33.8765 147.805 33.4361 147.853 32.9862C147.91 32.6798 147.939 32.3639 147.92 32.0575C147.92 31.9618 147.92 31.8661 147.92 31.7703V16.2996C147.92 16.1751 147.92 16.0507 147.92 15.9358C147.92 15.8783 147.882 15.8305 147.824 15.8305C147.69 15.8305 147.556 15.8209 147.413 15.8209H139.993C139.926 15.8209 139.859 15.8305 139.792 15.8305C139.754 15.84 139.725 15.8688 139.706 15.9071C139.706 16.0411 139.696 16.1751 139.696 16.3187C139.696 20.1864 139.696 24.0637 139.696 27.9409V39.6014C139.706 39.7163 139.706 39.8312 139.706 39.9557Z" fill="#2F7D40"></path><path d="M167 53.9904V23.0872C167 23.0585 166.79 21.8331 166.723 21.632C166.435 20.713 165.985 19.8418 165.401 19.0759C164.597 18.0037 163.535 17.1516 162.328 16.5868C161.725 16.2996 161.093 16.0985 160.433 15.9645C160.136 15.9071 159.839 15.8783 159.542 15.8401C159.341 15.8113 159.131 15.8113 158.93 15.8305C158.891 15.8401 158.863 15.8688 158.853 15.9071C158.853 16.0411 158.853 16.1751 158.853 16.3187C158.853 20.4641 158.853 24.619 158.853 28.7643C158.853 28.86 158.853 28.9557 158.853 29.0515C158.853 29.0898 158.853 29.1376 158.853 29.1759C158.853 29.2429 158.805 29.31 158.729 29.31C158.595 29.31 158.461 29.3195 158.317 29.3195H150.218C150.18 29.3195 150.141 29.3291 150.093 29.3291C150.036 29.3387 149.998 29.3865 149.988 29.4344C149.988 29.5589 149.979 29.6738 149.979 29.7982V35.954C149.979 36.0497 149.979 36.1454 149.979 36.2412C149.979 36.2699 149.988 36.2986 149.998 36.3178C150.007 36.3369 150.026 36.3561 150.055 36.3656C150.18 36.3848 150.294 36.3943 150.419 36.3848H158.614C158.652 36.3848 158.69 36.3943 158.738 36.3943C158.796 36.4039 158.834 36.4422 158.844 36.4997C158.844 36.5858 158.853 36.6624 158.853 36.739C158.853 38.9026 158.844 52.2289 158.844 54" fill="#2F7D40"></path><path d="M8.31937 53.9904C8.31937 53.8564 8.30979 43.1915 8.30979 43.0479C8.30979 36.5188 8.30979 29.9992 8.30979 23.4701C8.30979 23.3744 8.30979 23.2786 8.30979 23.1829C8.30979 23.1446 8.30979 23.0967 8.30979 23.0585C8.31937 22.9914 8.36723 22.934 8.43425 22.9244C8.50126 22.9244 8.56828 22.9149 8.63529 22.9149C9.95643 22.9149 11.268 22.9149 12.5891 22.9149C12.8476 22.9053 13.1061 22.9244 13.3646 22.9723C13.3742 22.9723 13.3933 22.9723 13.4029 22.9723C13.5656 22.9914 13.7284 23.0106 13.8816 23.0585C14.4847 23.1829 15.0591 23.4222 15.5761 23.7477C16.2941 24.1977 16.8972 24.8008 17.3663 25.5093C17.644 25.9305 17.8546 26.39 17.9886 26.8783C18.0269 27.0123 18.0556 27.1368 18.0939 27.2708C18.1418 27.4718 18.1226 27.6825 18.1896 27.8739C18.1896 27.8835 18.1896 27.9026 18.1896 27.9122C18.1896 27.9409 18.1896 27.9697 18.1896 27.9984V28.4483C18.1896 28.5153 18.1801 28.5824 18.1609 28.6494C18.1513 28.6877 18.1418 28.726 18.1322 28.7643C18.1226 28.9844 18.0843 29.1951 18.0269 29.4057C17.8833 29.9705 17.6152 30.5066 17.2514 30.9662C16.9834 31.2917 16.677 31.5884 16.342 31.8373C15.5282 32.4405 14.5709 32.8138 13.5752 32.9479C13.2593 32.967 12.9529 33.0149 12.637 33.0053C12.503 33.0053 12.369 33.0053 12.2254 33.0053H10.5117C10.4447 33.0053 10.3777 33.0149 10.3107 33.0245C10.2915 33.034 10.2245 33.0819 10.2245 33.101C10.2245 33.2351 10.2149 33.3691 10.2149 33.5127V39.8312C10.2149 39.8695 10.2149 39.9174 10.2245 39.9557C10.2245 40.0131 10.2724 40.0514 10.3202 40.061C10.4255 40.061 10.5404 40.0706 10.6457 40.0706H15.4229C15.6431 40.0706 15.8537 40.0706 16.0739 40.061C16.3037 40.0514 16.5334 40.0323 16.7632 40.0227C17.06 39.9557 17.3567 39.9652 17.6535 39.8887C17.979 39.8408 18.2949 39.7738 18.6109 39.6876C19.8746 39.3525 21.0713 38.7877 22.1339 38.0314C22.8328 37.5336 23.4742 36.9687 24.0582 36.3369C24.7188 35.638 25.2932 34.853 25.7718 34.0105C26.2601 33.1298 26.6335 32.1916 26.8632 31.2055C26.9398 30.8991 26.9877 30.5928 27.0451 30.2864C27.1026 29.9801 27.1026 29.6929 27.1696 29.3961C27.1792 29.0706 27.2174 28.7451 27.2079 28.4196C27.2079 28.2664 27.2079 28.1228 27.2079 27.9697C27.2079 27.7399 27.2174 27.5101 27.1887 27.2804C27.16 27.0506 27.1887 26.8208 27.1217 26.5911C27.1026 26.3613 27.0834 26.1315 27.0355 25.9018C26.9877 25.605 26.9302 25.3178 26.8632 25.021C26.576 23.7573 26.0782 22.5606 25.3889 21.4597C24.69 20.3396 23.8189 19.3344 22.8136 18.4728C22.3062 18.0324 21.7701 17.6399 21.1957 17.3048C20.449 16.8644 19.6448 16.5102 18.8119 16.2708C18.3907 16.156 17.9694 16.0602 17.5386 15.9836C17.3089 15.9358 17.0791 15.9071 16.8493 15.8879C16.3515 15.8496 15.8441 15.8209 15.3367 15.8305C12.369 15.8305 9.41074 15.8305 6.44296 15.8305H6.11746C5.83026 15.8305 5.54305 15.8496 5.26542 15.8975C3.01565 16.223 0.976496 17.7835 0.239337 19.9279C0.114882 20.263 0.0670145 20.6076 0.019147 20.9619C0.0095735 21.0193 0 21.4501 0 21.6224C0 32.249 0 53.5117 0 53.5117V53.9808H8.31937V53.9904Z" fill="#2F7D40"></path><path d="M21.8468 48.792C22.0096 48.4761 22.3255 48.2751 22.6702 48.2368C22.9095 48.208 23.1393 48.2176 23.3786 48.2655C23.6658 48.3229 23.9147 48.5144 24.0296 48.7824C24.087 48.8973 24.1253 49.0218 24.1445 49.1462C24.154 49.1845 24.154 49.2133 24.1636 49.2515C24.1828 49.3186 24.2402 49.376 24.3168 49.376C24.6614 49.3951 25.0061 49.3856 25.3507 49.376C25.4273 49.3664 25.4848 49.309 25.4848 49.2324C25.4848 49.0122 25.4369 48.792 25.3507 48.591C25.1593 48.0549 24.7668 47.6145 24.2498 47.3656C23.886 47.1932 23.4935 47.0975 23.101 47.0784C22.8329 47.0592 22.5553 47.0879 22.2872 47.155C21.7702 47.2603 21.2916 47.5379 20.9469 47.94C20.7172 48.1985 20.5448 48.5048 20.43 48.8399C20.2864 49.2133 20.2098 49.6153 20.2002 50.0174C20.2002 50.2568 20.2002 50.4865 20.2002 50.7259C20.2002 51.0705 20.2385 51.4152 20.3247 51.7502C20.4204 52.181 20.6214 52.5735 20.8991 52.9182C21.1671 53.2437 21.5118 53.4926 21.9139 53.6266C22.2202 53.7319 22.5457 53.7894 22.8712 53.7894C23.235 53.7894 23.5988 53.7415 23.9434 53.6171C24.6902 53.3873 25.255 52.7746 25.4273 52.0087C25.4656 51.8843 25.4752 51.7502 25.456 51.6258C25.4465 51.5875 25.389 51.5205 25.3507 51.5205L24.4795 51.5109C24.403 51.5109 24.3359 51.5205 24.2594 51.5205C24.2115 51.53 24.1636 51.5683 24.1445 51.6162C24.1158 51.7598 24.0775 51.9034 24.0296 52.0374C23.9051 52.3438 23.6275 52.5736 23.2924 52.6214C23.0818 52.6597 22.8616 52.6693 22.6414 52.6406C22.2872 52.6118 21.9809 52.4012 21.8181 52.0853C21.7128 51.8938 21.6458 51.6832 21.6171 51.463C21.5692 51.128 21.5501 50.7833 21.5501 50.4387C21.5501 50.1036 21.5692 49.7781 21.6171 49.4526C21.6554 49.2228 21.732 49.0026 21.8468 48.792Z" fill="#4F429B"></path><path d="M82.3322 53.1575C82.3322 52.2481 82.3322 51.3386 82.3322 50.4291V47.5379C82.3418 47.4517 82.3322 47.356 82.3035 47.2698C82.2844 47.2411 82.2557 47.2124 82.2269 47.2028C82.1791 47.1933 82.1216 47.1837 82.0642 47.1837C81.4132 47.1837 80.7526 47.1837 80.1016 47.1837C79.9963 47.1837 79.8814 47.1933 79.7761 47.1933C79.5368 47.2028 79.307 47.2411 79.0773 47.3081C78.8475 47.3656 78.6273 47.4613 78.4358 47.6049C78.1295 47.806 77.8997 48.1027 77.7657 48.4378C77.5742 48.9356 77.5742 49.4813 77.7848 49.9791C77.8901 50.2568 78.072 50.4961 78.3018 50.678L78.5603 50.8791C78.5986 50.9173 78.6082 50.9748 78.5986 51.0322C78.522 51.195 78.4358 51.3577 78.3592 51.5205C78.0529 52.1236 77.7561 52.7172 77.4593 53.3203C77.4115 53.3969 77.3732 53.483 77.354 53.5692C77.3445 53.6171 77.3827 53.6937 77.421 53.6937C77.8231 53.7128 78.2156 53.7032 78.6177 53.6937C78.6752 53.6841 78.7135 53.6554 78.7422 53.6075C78.7805 53.5501 78.8188 53.483 78.8571 53.416L79.7091 51.7024C79.757 51.6258 79.7857 51.5396 79.8336 51.463C79.8719 51.396 79.9293 51.3482 80.0059 51.3482C80.2835 51.329 80.5611 51.329 80.8388 51.3577C80.8771 51.3673 80.9058 51.396 80.9154 51.4247C80.9345 51.4726 80.9441 51.53 80.9441 51.5875C80.9441 52.0757 80.9441 52.5736 80.9441 53.0618C80.9441 53.2054 80.9441 53.349 80.9441 53.5022C80.9537 53.5979 81.0207 53.6745 81.1164 53.6841C81.2026 53.6937 81.2983 53.6937 81.3845 53.6937C81.643 53.6937 81.9014 53.6937 82.1503 53.6937C82.1599 53.6937 82.1695 53.6937 82.1791 53.6937C82.2844 53.6841 82.361 53.5884 82.3418 53.483C82.3322 53.3777 82.3322 53.2629 82.3322 53.1575ZM80.9058 50.2089C80.8866 50.2568 80.8484 50.2951 80.8005 50.3142C80.475 50.3334 80.1495 50.3334 79.824 50.3142C79.6612 50.3046 79.4985 50.2472 79.3645 50.161C79.2687 50.1036 79.1921 50.027 79.1443 49.9313C79.0773 49.8164 79.039 49.7015 79.0294 49.5675C79.0102 49.3856 79.0102 49.2037 79.0294 49.0218C79.0485 48.8016 79.1634 48.6006 79.3453 48.4665C79.3836 48.4282 79.4315 48.3995 79.4793 48.3804C79.6612 48.3038 79.8623 48.2655 80.0633 48.2655C80.3122 48.2751 80.5707 48.2463 80.8196 48.2846C80.8579 48.2942 80.8771 48.3229 80.8962 48.3612C80.9154 48.4091 80.9154 48.4665 80.9154 48.524C80.9154 48.7729 80.9154 49.0314 80.9154 49.3569C80.9345 49.6345 80.9249 49.9217 80.9058 50.2089Z" fill="#4F429B"></path><path d="M94.3943 49.2994C94.3464 49.1462 94.3464 48.9739 94.3081 48.8207C94.155 48.1506 93.6667 47.6145 93.0253 47.3751C92.7668 47.2794 92.5083 47.2124 92.2307 47.1933C92.0679 47.1741 91.9052 47.1741 91.7424 47.1741H89.7799C89.6937 47.1741 89.598 47.1837 89.5118 47.1837C89.4161 47.1933 89.3491 47.2698 89.3395 47.3656C89.3299 47.49 89.3299 47.6241 89.3299 47.7485V53.3011C89.3204 53.3873 89.3299 53.483 89.3491 53.5692C89.3778 53.6171 89.4161 53.6554 89.464 53.6745C89.4831 53.6841 89.5023 53.6841 89.5118 53.6841H90.5458C90.5649 53.6841 90.5841 53.6745 90.6032 53.6745C90.6511 53.6554 90.6894 53.6171 90.7085 53.5596C90.7181 53.4926 90.7277 53.416 90.7277 53.349C90.7277 52.8033 90.7277 52.2576 90.7277 51.7119C90.7277 51.6354 90.7372 51.5683 90.7468 51.5013C90.7564 51.463 90.7851 51.4439 90.8234 51.4343C91.0723 51.4056 91.3308 51.396 91.5797 51.4152C91.9243 51.4152 92.269 51.3864 92.6041 51.329C92.9104 51.2811 93.1976 51.1662 93.4657 51.0035C93.8869 50.745 94.1933 50.3238 94.2986 49.8355C94.3273 49.6919 94.3369 49.5483 94.3752 49.4047H94.3656C94.3943 49.376 94.3943 49.3377 94.3943 49.2994ZM92.9679 49.4526C92.9487 49.5196 92.9391 49.5962 92.92 49.6632C92.8721 49.9217 92.6902 50.1323 92.4413 50.2089C92.269 50.2759 92.0967 50.3142 91.9148 50.3142C91.5701 50.3046 91.2255 50.3046 90.8808 50.3046C90.8042 50.2951 90.7468 50.2472 90.7372 50.1802C90.7372 50.1132 90.7277 50.0366 90.7277 49.96C90.7277 49.7398 90.7181 49.5196 90.7277 49.2611C90.7372 49.0026 90.7085 48.6963 90.7372 48.3899C90.7564 48.3421 90.7947 48.3038 90.8521 48.2846C90.8713 48.2846 90.8904 48.2751 90.9096 48.2751H91.9435C92.1254 48.2751 92.3073 48.3229 92.47 48.3995C92.5849 48.4474 92.6902 48.5335 92.7572 48.6388C92.8625 48.7633 92.92 48.9165 92.9391 49.0888C92.9391 49.1462 92.9487 49.1941 92.9679 49.242C92.987 49.309 92.987 49.3856 92.9679 49.4526Z" fill="#4F429B"></path><path d="M75.439 53.4447C75.3816 53.2916 75.3241 53.1384 75.2667 52.9852L73.2467 47.5762C73.2084 47.4709 73.1605 47.3752 73.1222 47.2794C73.1031 47.2315 73.0456 47.1933 72.9978 47.1933C72.6531 47.1741 72.3085 47.1741 71.9638 47.1933C71.9064 47.2028 71.8585 47.2315 71.8394 47.2794C71.7915 47.356 71.7532 47.4422 71.7341 47.5283C71.0161 49.443 70.2981 51.3673 69.58 53.2916C69.5513 53.3586 69.5322 53.4256 69.5035 53.4926C69.4652 53.5979 69.513 53.6841 69.6088 53.6841C69.9821 53.6841 70.3651 53.6841 70.7576 53.6841C70.815 53.6745 70.8629 53.6458 70.882 53.5979C70.9108 53.5501 70.9395 53.5022 70.9586 53.4543C71.0256 53.1671 71.1501 52.9086 71.2363 52.631C71.2554 52.564 71.2937 52.497 71.332 52.4395C71.3511 52.4108 71.3799 52.3917 71.4182 52.3821C71.4756 52.3725 71.5235 52.3629 71.5809 52.3629H73.4956C73.5913 52.3629 73.6679 52.4204 73.7062 52.5065C73.7541 52.6214 73.7924 52.7459 73.8307 52.8703C73.9073 53.0905 73.9838 53.3203 74.0604 53.5405C74.07 53.5788 74.0892 53.6075 74.1179 53.6266C74.137 53.6554 74.1753 53.6745 74.204 53.6841C74.4051 53.6937 74.6061 53.7032 74.7976 53.7128V53.7032H75.2858C75.3241 53.7032 75.3624 53.6937 75.3912 53.6841C75.4294 53.6745 75.4582 53.6458 75.4582 53.6075H75.4486C75.4677 53.5501 75.4582 53.5022 75.439 53.4447ZM73.1127 51.2524C73.0935 51.262 73.0744 51.262 73.0552 51.262H71.8585C71.8394 51.262 71.8202 51.2524 71.8011 51.2524C71.7532 51.2333 71.7245 51.1758 71.7245 51.128C71.7532 51.0227 71.7819 50.9173 71.8202 50.8216C71.9734 50.3429 72.1266 49.8547 72.2893 49.376C72.3085 49.2898 72.3564 49.2037 72.4042 49.1367C72.4329 49.108 72.4617 49.108 72.4904 49.1367C72.5287 49.1654 72.567 49.2133 72.5861 49.2611L72.9212 50.2376C72.9403 50.2855 72.9499 50.3429 72.9691 50.3908C73.0456 50.6301 73.1222 50.8695 73.2084 51.1088C73.2084 51.1088 73.2084 51.1088 73.2084 51.1184C73.2371 51.1758 73.1892 51.2428 73.1127 51.2524Z" fill="#4F429B"></path><path d="M101.68 53.215L99.5643 47.557C99.526 47.4517 99.4782 47.356 99.4399 47.2603C99.4207 47.2124 99.3633 47.1741 99.3154 47.1741C98.9708 47.1741 98.6261 47.1741 98.2815 47.1741C98.224 47.1741 98.1762 47.2124 98.157 47.2603C98.1187 47.3464 98.0804 47.423 98.0517 47.5092C97.6688 48.524 97.2858 49.5388 96.9125 50.5631C96.587 51.4439 96.2519 52.3342 95.9264 53.215C95.8881 53.3203 95.8594 53.416 95.8211 53.5213C95.8115 53.5309 95.8115 53.5501 95.8115 53.5596C95.8115 53.6171 95.8594 53.6649 95.9168 53.6649C96.2902 53.6649 96.6731 53.6649 97.0561 53.6649C97.1327 53.6554 97.1901 53.6075 97.2188 53.5405C97.238 53.4926 97.2667 53.4447 97.2763 53.3873C97.3624 53.1288 97.4486 52.8703 97.5348 52.6118C97.5635 52.5448 97.5922 52.4778 97.6305 52.4204C97.6496 52.3917 97.6784 52.3725 97.7166 52.3629C97.7549 52.3534 97.7837 52.3438 97.822 52.3438H99.7845C99.8228 52.3438 99.8611 52.3534 99.8898 52.3629C99.9281 52.3725 99.9568 52.3917 99.976 52.4204C100.024 52.5161 100.072 52.6214 100.1 52.7172C100.196 52.9948 100.292 53.2628 100.388 53.5405C100.407 53.6171 100.474 53.6649 100.55 53.6649C100.732 53.6745 100.914 53.6745 101.096 53.6745C101.278 53.6745 101.46 53.6745 101.642 53.6745C101.68 53.6745 101.709 53.6649 101.747 53.6554H101.738C101.776 53.6458 101.805 53.5979 101.795 53.5596C101.766 53.4543 101.728 53.3299 101.68 53.215ZM99.4303 51.2524C99.3729 51.262 99.325 51.262 99.2676 51.262C99.1048 51.262 98.9421 51.262 98.7314 51.262C98.5304 51.2716 98.3294 51.262 98.1379 51.2428C98.09 51.2237 98.0517 51.1758 98.0517 51.128C98.0517 51.1088 98.0517 51.0897 98.0517 51.0705C98.2432 50.4865 98.4347 49.9025 98.6357 49.3281C98.6548 49.2803 98.6836 49.2324 98.7123 49.1845C98.7314 49.1558 98.7697 49.1367 98.808 49.1462C98.8463 49.1462 98.875 49.1654 98.8942 49.2037C98.9995 49.4909 99.1048 49.7781 99.2005 50.0653C99.3154 50.4099 99.4303 50.745 99.5452 51.0897C99.5452 51.0897 99.5452 51.0897 99.5452 51.0992C99.5452 51.1758 99.4973 51.2428 99.4303 51.2524Z" fill="#4F429B"></path><path d="M51.3999 47.289C51.3904 47.2507 51.3616 47.222 51.3329 47.2124C51.3042 47.1932 51.2659 47.1837 51.2276 47.1837C50.7585 47.1837 50.2798 47.1837 49.8107 47.1837C49.715 47.1837 49.6288 47.2411 49.6001 47.3273C49.4374 47.7677 49.2842 48.2176 49.131 48.658L48.1354 51.4726C48.1162 51.5205 48.0875 51.5683 48.0588 51.6162C48.0492 51.6258 48.0492 51.6354 48.0396 51.6449C48.0013 51.6736 47.963 51.6641 47.9343 51.6258C47.896 51.5588 47.8673 51.5013 47.8386 51.4343C47.5322 50.5823 47.2355 49.7302 46.9291 48.8686C46.7472 48.3516 46.5653 47.8442 46.3738 47.3273C46.3451 47.2411 46.2685 47.1741 46.1728 47.1741C45.7037 47.1741 45.225 47.1741 44.7559 47.1741C44.7368 47.1741 44.7176 47.1837 44.6985 47.1837C44.6315 47.2028 44.574 47.2603 44.574 47.3369C44.5645 47.4613 44.5645 47.5953 44.5645 47.7198V53.1863C44.5645 53.2724 44.5645 53.3682 44.5645 53.4543C44.5645 53.4926 44.574 53.5309 44.574 53.5596C44.5932 53.6266 44.6506 53.6841 44.7272 53.6841C45.0718 53.6841 45.4165 53.6841 45.7611 53.6841C45.8377 53.6745 45.8952 53.6171 45.9047 53.55C45.9143 53.4926 45.9239 53.4447 45.9239 53.3873C45.9239 53.1288 45.9239 52.8703 45.9239 52.6214C45.9335 52.2193 45.9239 51.8172 45.8856 51.4056C45.876 51.3003 45.876 51.1854 45.876 51.0801C45.8664 50.7737 45.8569 50.4674 45.8473 50.1515C45.8473 49.9121 45.8473 49.6824 45.8473 49.443C45.8473 49.4047 45.8569 49.376 45.876 49.3377C45.876 49.3281 45.9047 49.3281 45.9143 49.3281C45.9239 49.3281 45.9622 49.3377 45.9622 49.3473C46.0101 49.4622 46.0579 49.577 46.1058 49.7015C46.5366 50.8982 46.9674 52.0949 47.4078 53.2916C47.4461 53.3969 47.4939 53.4926 47.5322 53.5883C47.561 53.6362 47.6088 53.6649 47.6567 53.6649C47.896 53.6841 48.1258 53.6841 48.3651 53.6649C48.4226 53.6554 48.4704 53.6171 48.4896 53.5692C48.5279 53.4735 48.5757 53.3682 48.614 53.2628C48.9395 52.3725 49.2555 51.4917 49.581 50.6014C49.7341 50.1706 49.8873 49.7494 50.0405 49.3186C50.0596 49.2707 50.0692 49.2516 50.1171 49.2707C50.1554 49.2803 50.1745 49.309 50.1745 49.3473C50.1554 50.0366 50.1362 50.7259 50.0979 51.4152C50.0692 51.8843 50.0692 52.3629 50.0692 52.832C50.0692 53.0139 50.0692 53.1958 50.0692 53.3777C50.0692 53.4352 50.0884 53.483 50.0884 53.5405C50.1075 53.6075 50.1649 53.6649 50.2415 53.6745C50.5862 53.6745 50.9308 53.6745 51.2755 53.6745C51.3521 53.6745 51.4095 53.6171 51.4286 53.55C51.4382 53.4639 51.4382 53.3682 51.4382 53.282V50.4482C51.4382 49.4813 51.4382 48.5144 51.4286 47.557C51.4286 47.4709 51.4191 47.3751 51.3999 47.289Z" fill="#4F429B"></path><path d="M41.6157 52.2768C41.0317 50.7259 40.4573 49.1845 39.8733 47.6336C39.8255 47.5188 39.7776 47.3943 39.7297 47.2794C39.7106 47.2315 39.6627 47.1933 39.6053 47.1933C39.2606 47.1741 38.916 47.1741 38.5713 47.1933C38.5139 47.1933 38.466 47.2315 38.4469 47.2794C38.4086 47.3656 38.3703 47.4422 38.332 47.5283L36.8098 51.6066L36.1971 53.2341C36.1397 53.349 36.1109 53.4735 36.0918 53.5979C36.0918 53.6362 36.1109 53.6745 36.1492 53.6745C36.3503 53.6937 36.5609 53.7032 36.7619 53.7032L37.3459 53.6937C37.4034 53.6841 37.4512 53.6554 37.4704 53.6075C37.4991 53.5596 37.5278 53.5118 37.5374 53.4639C37.6236 53.1958 37.7097 52.9469 37.7959 52.6884C37.815 52.6118 37.8533 52.5544 37.882 52.4874C37.9108 52.4395 37.9586 52.4012 38.0065 52.3917C38.0448 52.3821 38.0735 52.3725 38.1118 52.3821H40.0169C40.0744 52.3821 40.1222 52.3917 40.1797 52.4108C40.218 52.4204 40.2467 52.4395 40.2658 52.4778C40.2946 52.5257 40.3137 52.5736 40.3329 52.631C40.4286 52.9086 40.5243 53.1767 40.6105 53.4543C40.6296 53.5022 40.6488 53.5596 40.6679 53.6075C40.6966 53.6745 40.7637 53.7224 40.8403 53.7224C41.204 53.7224 41.5678 53.7224 41.9316 53.7224C41.9508 53.7224 41.9699 53.7128 41.9795 53.7128C42.0274 53.6937 42.0561 53.6458 42.0561 53.5883C42.0274 53.5022 42.0082 53.416 41.9795 53.3299C41.8742 52.9565 41.7497 52.6118 41.6157 52.2768ZM39.7393 51.262C39.6819 51.262 39.634 51.2716 39.5765 51.2716H39.0309C38.8298 51.2811 38.6288 51.2716 38.4373 51.2524C38.399 51.2428 38.3416 51.1567 38.3416 51.1375C38.3416 51.1184 38.3416 51.0992 38.3416 51.0801C38.5618 50.4099 38.7724 49.7398 39.0117 49.0697C39.0213 49.0505 39.0309 49.0409 39.0404 49.0314C39.05 49.0218 39.0692 49.0314 39.0883 49.0314C39.1266 49.0314 39.1553 49.0601 39.1649 49.0984L39.8446 51.1088V51.1184C39.8638 51.1854 39.8063 51.2524 39.7393 51.262Z" fill="#4F429B"></path><path d="M59.4129 49.3856C59.4799 49.3664 59.5277 49.309 59.5277 49.2324C59.5277 49.175 59.5277 49.1271 59.5182 49.0697C59.4894 48.9644 59.4607 48.859 59.432 48.7537C59.2214 48.0453 58.6757 47.4805 57.9673 47.2603C57.6896 47.1741 57.4024 47.1167 57.1152 47.0975C56.8567 47.0784 56.6078 47.1071 56.3589 47.1645C55.7079 47.289 55.1335 47.6719 54.7793 48.2272C54.674 48.3804 54.5878 48.5431 54.5208 48.7059C54.3868 49.0218 54.3102 49.3664 54.2719 49.7111C54.2336 50.2185 54.2336 50.7259 54.2719 51.2333C54.291 51.4822 54.3485 51.7407 54.4251 51.98C54.4921 52.2098 54.5878 52.4204 54.7218 52.6214C55.009 53.1097 55.459 53.483 56.0047 53.6554C56.1866 53.7511 56.3972 53.7415 56.5887 53.7798C56.7993 53.8181 57.0195 53.8181 57.2397 53.7894C57.3258 53.7798 57.4216 53.7511 57.5077 53.7511C57.6705 53.732 57.8332 53.6937 57.9864 53.6362C58.848 53.3299 59.3458 52.7267 59.5277 51.8268C59.5373 51.7694 59.5373 51.7215 59.5277 51.6641C59.5182 51.6162 59.4799 51.5683 59.432 51.5492C59.0682 51.53 58.7044 51.5396 58.3406 51.5492C58.2832 51.5588 58.2353 51.5875 58.2162 51.6354C58.1779 51.7598 58.1492 51.8843 58.1109 51.9992C58.0056 52.3342 57.7183 52.5831 57.3737 52.6406C57.1439 52.6884 56.9046 52.6884 56.6653 52.6597C56.3302 52.6214 56.043 52.4204 55.8898 52.1236C55.8036 51.9609 55.7462 51.7885 55.7079 51.6066H55.6983C55.6026 51.0514 55.5835 50.4865 55.6409 49.9313C55.6505 49.7111 55.6792 49.5005 55.7271 49.2803C55.7749 49.0888 55.8419 48.8973 55.9472 48.725C56.0908 48.4665 56.3493 48.2942 56.6365 48.2463C56.9237 48.1985 57.2205 48.208 57.4982 48.2751C57.5364 48.2846 57.5652 48.2942 57.6035 48.3134C57.8619 48.4187 58.0534 48.6389 58.13 48.9069C58.1683 49.0314 58.197 49.1462 58.2353 49.2707C58.2545 49.3377 58.3215 49.3856 58.3981 49.3856C58.5608 49.3856 58.7236 49.3856 58.8863 49.3856V49.3952L59.4129 49.3856Z" fill="#4F429B"></path><path d="M67.3688 53.2724C66.8231 52.43 66.2774 51.5875 65.7413 50.745C65.6838 50.6493 65.6264 50.5631 65.5689 50.4674C65.5402 50.4195 65.5211 50.3717 65.4924 50.3238C65.4636 50.2759 65.4732 50.2185 65.5019 50.1706C65.6838 49.8738 65.8753 49.5866 66.0572 49.2994C66.4401 48.7059 66.8326 48.1123 67.2156 47.5187C67.2539 47.4613 67.2922 47.3847 67.3305 47.3369C67.3592 47.289 67.3305 47.1741 67.2539 47.1741C66.8135 47.1741 66.3827 47.1741 65.9423 47.1741C65.8466 47.1741 65.7604 47.222 65.7221 47.2986C65.6455 47.423 65.5689 47.5379 65.4924 47.6719C65.1094 48.2942 64.7361 48.9069 64.3531 49.5292C64.3148 49.5962 64.2765 49.6536 64.2287 49.7111C64.2095 49.7398 64.1712 49.7589 64.1425 49.7685C63.9989 49.7972 63.8553 49.7972 63.7117 49.7685C63.683 49.7494 63.6543 49.7207 63.6447 49.6919C63.6447 48.9643 63.6447 48.2368 63.6447 47.5187C63.6447 47.4422 63.6351 47.3751 63.616 47.3081C63.5968 47.2794 63.5777 47.2507 63.5489 47.2315C63.5202 47.2124 63.4819 47.2028 63.4436 47.2028C63.099 47.2028 62.7543 47.2028 62.4097 47.2028C62.3905 47.2028 62.3714 47.2028 62.3618 47.2124C62.3331 47.2315 62.2948 47.2507 62.2852 47.2794C62.2565 47.3656 62.2469 47.4613 62.2565 47.5475V50.4387C62.2565 51.4247 62.2565 52.4012 62.2565 53.3873C62.2565 53.6745 62.3044 53.7128 62.5533 53.7128H63.166C63.2713 53.7128 63.3862 53.7032 63.4915 53.7032C63.5777 53.6841 63.6543 53.6075 63.6638 53.5118C63.6638 53.4543 63.6638 53.4064 63.6638 53.349V51.913V51.1471C63.6734 51.0897 63.7117 51.0514 63.7596 51.0322L63.817 51.0226C63.9606 51.0226 64.1042 51.0226 64.2478 51.0226C64.3244 51.0322 64.3914 51.0705 64.4297 51.128C64.4871 51.195 64.535 51.2811 64.5829 51.3577C64.9754 51.9704 65.3583 52.5831 65.7413 53.2054C65.7891 53.282 65.837 53.3586 65.8849 53.4352C65.9136 53.483 65.9423 53.5309 65.9806 53.5692C66.0285 53.6458 66.1146 53.6936 66.2104 53.6936H67.4645C67.4836 53.6936 67.5124 53.6937 67.5124 53.6841H67.5028C67.5219 53.6554 67.5602 53.6266 67.5507 53.6075C67.5028 53.483 67.4454 53.3682 67.3688 53.2724Z" fill="#4F429B"></path><path d="M17.4141 47.3273C17.4046 47.2507 17.3471 47.1932 17.2705 47.1837H16.1792C16.1217 47.1837 16.0738 47.2124 16.0451 47.2602C15.9877 47.3273 15.9398 47.4038 15.8919 47.49L14.9633 49.0313C14.5421 49.7302 14.1209 50.4291 13.6996 51.1279C13.6805 51.1758 13.6422 51.2237 13.5943 51.2524C13.5752 51.262 13.5656 51.262 13.5464 51.262C13.5273 51.262 13.5081 51.2524 13.4986 51.2428C13.4699 51.1758 13.4603 51.1088 13.4699 51.0322C13.4699 50.0174 13.4699 48.993 13.4699 47.9783C13.4699 47.8155 13.4699 47.6528 13.4699 47.49C13.4699 47.4326 13.4603 47.3847 13.4603 47.3273C13.4411 47.2602 13.3933 47.2028 13.3167 47.1837C12.972 47.1837 12.6274 47.1837 12.2827 47.1837C12.2636 47.1837 12.2444 47.1837 12.2349 47.1932C12.2062 47.2124 12.1774 47.2411 12.1583 47.2698C12.1296 47.356 12.12 47.4517 12.1296 47.5379V50.4291V53.1479C12.1296 53.2724 12.1391 53.4064 12.1391 53.5309C12.1487 53.6075 12.1966 53.6649 12.2636 53.6841C12.6274 53.7032 12.9912 53.6936 13.355 53.6841C13.4124 53.6745 13.4603 53.6553 13.4986 53.6075C13.5464 53.55 13.5847 53.4926 13.623 53.4351L14.2166 52.4587L15.8441 49.7494C15.8632 49.7015 15.9015 49.6536 15.9494 49.6249C15.9685 49.6153 15.9781 49.6153 15.9973 49.6153C16.0164 49.6153 16.0451 49.6249 16.0451 49.6345C16.0547 49.7398 16.0643 49.8451 16.0643 49.96C16.0643 50.9556 16.0643 51.9608 16.0643 52.9565V53.3394C16.0643 53.3969 16.0643 53.4447 16.0643 53.5022C16.0643 53.5979 16.1409 53.6745 16.2366 53.6745C16.5621 53.6745 16.8876 53.6745 17.2131 53.6745C17.2322 53.6745 17.2514 53.6745 17.2705 53.6745C17.3375 53.6553 17.395 53.5979 17.4046 53.5213C17.4141 53.4351 17.4141 53.3394 17.4141 53.2532V47.5857C17.4141 47.5283 17.4141 47.4613 17.4141 47.423C17.4237 47.4038 17.4141 47.3656 17.4141 47.3273Z" fill="#4F429B"></path><path d="M132.88 49.8738C132.851 49.2515 132.65 48.658 132.296 48.1506C132.009 47.7485 131.607 47.4422 131.147 47.2698C130.975 47.2124 130.803 47.1645 130.621 47.1358C130.152 47.0401 129.673 47.0784 129.232 47.2411C128.581 47.4422 128.045 47.9113 127.758 48.524C127.567 48.8973 127.442 49.2994 127.404 49.7207C127.356 50.228 127.356 50.7354 127.414 51.2428C127.471 51.7311 127.634 52.2002 127.911 52.6118C128.218 53.0905 128.677 53.4543 129.213 53.6362C129.386 53.6936 129.568 53.7319 129.74 53.7607C130.142 53.8468 130.534 53.7702 130.927 53.6936C131.511 53.5309 132.018 53.1671 132.353 52.6693C132.631 52.2481 132.813 51.7598 132.87 51.2524H132.861C132.899 50.9748 132.899 50.7067 132.928 50.4578C132.899 50.2376 132.88 50.0557 132.88 49.8738ZM131.521 50.3334C131.521 50.4195 131.521 50.5152 131.511 50.6014C131.521 50.9078 131.482 51.2141 131.406 51.5205C131.358 51.7311 131.281 51.9417 131.157 52.1236C131.042 52.3151 130.879 52.4587 130.678 52.5544C130.611 52.5831 130.544 52.6118 130.477 52.631C130.286 52.6693 130.085 52.6789 129.883 52.6597C129.577 52.6214 129.299 52.4587 129.118 52.2098C128.974 52.0183 128.869 51.8077 128.811 51.5779C128.744 51.3481 128.706 51.1184 128.696 50.879C128.696 50.7354 128.677 50.5918 128.677 50.3908C128.687 50.228 128.687 50.0079 128.715 49.7972C128.744 49.5292 128.811 49.2611 128.917 49.0122C128.974 48.8782 129.051 48.7537 129.146 48.6388C129.319 48.4282 129.568 48.2846 129.836 48.2463C130.037 48.2176 130.238 48.2176 130.429 48.2559C130.611 48.2942 130.774 48.3708 130.908 48.4857C131.023 48.5814 131.118 48.6867 131.185 48.8207C131.291 49.0122 131.377 49.2133 131.415 49.4239C131.511 49.7206 131.54 50.027 131.521 50.3334Z" fill="#4F429B"></path><path d="M157.044 53.3299C156.326 51.4056 155.608 49.4909 154.89 47.5666C154.851 47.4613 154.803 47.3656 154.765 47.2698C154.736 47.222 154.689 47.1933 154.641 47.1933C154.296 47.1741 153.951 47.1741 153.607 47.1933C153.549 47.2028 153.501 47.2315 153.482 47.289C153.444 47.3656 153.406 47.4517 153.377 47.5379C152.669 49.443 151.951 51.3481 151.242 53.2533C151.204 53.3586 151.175 53.4639 151.146 53.5692C151.137 53.6266 151.165 53.6745 151.223 53.6937C151.386 53.7128 151.548 53.7128 151.711 53.7128C151.931 53.7128 152.142 53.7128 152.362 53.7128C152.458 53.7128 152.535 53.6458 152.563 53.5596C152.582 53.5118 152.602 53.4543 152.621 53.4064C152.697 53.1671 152.774 52.9182 152.86 52.6789C152.879 52.6119 152.917 52.5448 152.946 52.4778C152.975 52.43 153.023 52.3917 153.071 52.3917C153.109 52.3821 153.138 52.3821 153.176 52.3821H155.081C155.119 52.3821 155.158 52.3917 155.186 52.3917C155.244 52.4012 155.292 52.43 155.311 52.4778C155.359 52.5927 155.407 52.7172 155.445 52.832C155.531 53.0714 155.608 53.3107 155.684 53.5596C155.722 53.6458 155.799 53.7032 155.895 53.7128C156.077 53.7128 156.259 53.7128 156.44 53.7128H156.766C156.852 53.7224 156.948 53.7128 157.034 53.6937C157.072 53.6841 157.091 53.6458 157.091 53.6171C157.101 53.5118 157.082 53.416 157.044 53.3299ZM154.823 51.2333C154.794 51.2524 154.756 51.262 154.717 51.262C154.306 51.262 153.884 51.262 153.473 51.262H153.463C153.396 51.2524 153.348 51.1854 153.358 51.1088C153.367 51.0609 153.377 51.0035 153.396 50.9556C153.549 50.4961 153.702 50.0366 153.856 49.5675L154.028 49.0505C154.047 49.0026 154.066 48.9931 154.105 49.0122C154.124 49.0218 154.133 49.0314 154.143 49.0409C154.162 49.0697 154.181 49.0984 154.2 49.1271C154.315 49.4622 154.43 49.8068 154.545 50.1515H154.555L154.87 51.128C154.851 51.1758 154.842 51.2141 154.823 51.2333Z" fill="#4F429B"></path><path d="M140.884 50.4674C140.884 49.5579 140.884 48.6484 140.884 47.739C140.884 47.6145 140.874 47.4805 140.874 47.356C140.865 47.2794 140.807 47.222 140.74 47.2124C140.396 47.1837 140.051 47.2028 139.706 47.2028C139.687 47.2028 139.668 47.2124 139.649 47.2124C139.611 47.2124 139.534 47.2794 139.534 47.3177C139.525 47.4039 139.515 47.4996 139.515 47.5858C139.515 48.2942 139.515 49.0027 139.515 49.7111C139.515 49.8164 139.515 49.9313 139.505 50.0366C139.496 50.094 139.467 50.1419 139.41 50.1611C139.362 50.1802 139.304 50.1993 139.256 50.2089C138.787 50.2759 138.318 50.2855 137.849 50.2472C137.811 50.2472 137.773 50.2376 137.744 50.2281C137.485 50.1802 137.275 50.0079 137.169 49.7685C137.141 49.7015 137.122 49.6345 137.112 49.5579C137.102 49.4335 137.093 49.2994 137.093 49.175C137.093 48.9165 137.093 48.658 137.093 48.4091C137.093 48.1027 137.093 47.7964 137.093 47.4805C137.093 47.423 137.083 47.3752 137.083 47.3177C137.064 47.2507 137.007 47.1933 136.93 47.1933H135.896C135.8 47.2028 135.733 47.2794 135.733 47.3752C135.733 47.9879 135.733 48.6101 135.733 49.2228C135.733 49.4239 135.762 49.6249 135.8 49.8164C135.906 50.3429 136.241 50.7929 136.719 51.0418C136.978 51.1758 137.256 51.2716 137.543 51.3099C137.887 51.3577 138.232 51.3769 138.577 51.3577C138.845 51.3482 139.122 51.3194 139.39 51.2812C139.41 51.2716 139.429 51.2716 139.448 51.2812C139.477 51.3003 139.525 51.329 139.525 51.3482C139.544 51.4152 139.544 51.4918 139.544 51.5588C139.544 52.047 139.544 52.5353 139.544 53.0331C139.544 53.1767 139.544 53.3203 139.544 53.4639C139.544 53.5022 139.553 53.5405 139.563 53.5692C139.582 53.6171 139.62 53.665 139.678 53.6745C140.041 53.7032 140.405 53.7032 140.759 53.6745C140.836 53.665 140.894 53.6075 140.903 53.5309C140.913 53.4256 140.922 53.3107 140.922 53.2054H140.913C140.884 52.2959 140.884 51.3769 140.884 50.4674Z" fill="#4F429B"></path><path d="M33.5171 47.6145C33.5171 47.5092 33.5075 47.3943 33.498 47.289C33.4788 47.2411 33.4405 47.1932 33.3927 47.1741C33.3352 47.1645 33.2874 47.1645 33.2299 47.1549C32.9427 47.1549 32.6459 47.1549 32.3587 47.1549H29.5824C29.4771 47.1549 29.3622 47.1645 29.2569 47.1741C29.2186 47.1837 29.1899 47.2124 29.1803 47.2411C29.1612 47.289 29.1516 47.3464 29.142 47.3943C29.1229 47.7389 29.1037 48.0836 29.0942 48.4282C29.0654 48.9931 29.0463 49.5483 29.0463 50.1131C29.0463 50.1897 29.0367 50.2568 29.0367 50.3333C29.008 50.6205 28.9697 50.9077 28.9506 51.2045C28.9218 51.4247 28.874 51.6353 28.8165 51.8459C28.7878 51.9513 28.7399 52.047 28.6825 52.1427C28.5868 52.3246 28.424 52.4491 28.2325 52.5161L27.9741 52.5927C27.9071 52.6118 27.8496 52.6693 27.8496 52.7459C27.8496 53.0043 27.8496 53.2628 27.8496 53.5117C27.8496 53.5309 27.8592 53.55 27.8688 53.5596C27.8879 53.6075 27.9262 53.6458 27.9741 53.6649C28.2613 53.6841 28.558 53.6649 28.8357 53.5979C29.1803 53.5213 29.4771 53.3298 29.6973 53.0618C29.8505 52.8607 29.9749 52.631 30.0515 52.3916C30.1664 52.047 30.243 51.6928 30.2813 51.329C30.3004 51.1471 30.31 50.9652 30.3387 50.7929C30.3483 50.7067 30.3579 50.611 30.3579 50.5248C30.377 50.0557 30.3866 49.577 30.4057 49.1079C30.4153 48.8686 30.444 48.6388 30.4727 48.3995C30.4727 48.3612 30.4919 48.3325 30.511 48.3038C30.5398 48.275 30.5685 48.2655 30.6068 48.2655C31.0759 48.2655 31.5546 48.2655 32.0237 48.2655C32.0715 48.275 32.1194 48.3133 32.1385 48.3612C32.1673 48.4857 32.1768 48.6197 32.1673 48.7441C32.1673 50.2185 32.1673 51.6832 32.1673 53.1575C32.1673 53.282 32.1768 53.416 32.1864 53.5405C32.196 53.617 32.2534 53.6745 32.33 53.6841H33.3639C33.3831 53.6841 33.4022 53.6745 33.4214 53.6745C33.4693 53.6553 33.5171 53.617 33.5267 53.5596C33.5363 53.4734 33.5458 53.3777 33.5458 53.2916L33.5363 50.4482C33.5171 49.5004 33.5171 48.5622 33.5171 47.6145Z" fill="#4F429B"></path><path d="M147.317 50.6397C147.241 50.5344 147.174 50.4291 147.126 50.3142C147.116 50.2855 147.116 50.2472 147.126 50.2089C147.155 50.1227 147.202 50.0461 147.25 49.9696C147.777 49.1654 148.303 48.3516 148.83 47.5475C148.878 47.4709 148.926 47.3943 148.964 47.3177C148.974 47.2986 148.974 47.2794 148.974 47.2698C148.964 47.2315 148.945 47.1932 148.916 47.1932C148.466 47.1741 148.007 47.1837 147.557 47.1932C147.538 47.1932 147.518 47.1932 147.509 47.2028C147.48 47.2124 147.442 47.2315 147.423 47.2603C147.356 47.3464 147.298 47.4422 147.241 47.5283L146.073 49.4334C146.015 49.5292 145.958 49.6153 145.891 49.7111C145.862 49.7589 145.814 49.7877 145.766 49.7972C145.642 49.8164 145.508 49.8164 145.384 49.7972C145.336 49.7781 145.288 49.7398 145.278 49.6919C145.269 49.6058 145.269 49.51 145.269 49.4239C145.269 48.8207 145.269 48.2272 145.269 47.6241C145.269 47.5379 145.249 47.4422 145.249 47.356C145.24 47.2794 145.182 47.222 145.106 47.2124H144.072C144.053 47.2124 144.034 47.222 144.014 47.222C143.967 47.2411 143.928 47.289 143.919 47.3368C143.919 47.423 143.909 47.5187 143.909 47.6049V50.4387V50.879C143.909 51.6928 143.909 52.5161 143.909 53.3299C143.909 53.416 143.919 53.5117 143.928 53.5979C143.947 53.6458 143.995 53.6841 144.043 53.7032C144.168 53.7128 144.302 53.7128 144.426 53.7128C144.665 53.7224 144.895 53.7128 145.135 53.7032C145.163 53.7032 145.249 53.6362 145.249 53.5979C145.259 53.5117 145.269 53.416 145.269 53.3299C145.269 52.7267 145.269 52.1332 145.269 51.53C145.269 51.4247 145.278 51.3098 145.278 51.2045C145.288 51.1279 145.345 51.0705 145.412 51.0514C145.489 51.0418 145.556 51.0418 145.632 51.0418C145.709 51.0418 145.776 51.0418 145.853 51.0418C145.948 51.0418 146.035 51.0801 146.082 51.1567C146.188 51.3098 146.283 51.463 146.379 51.6162C146.781 52.2481 147.174 52.8799 147.566 53.5118C147.633 53.6458 147.767 53.7224 147.92 53.7224C148.284 53.7224 148.648 53.7224 149.012 53.7224C149.069 53.7224 149.117 53.7128 149.175 53.7128C149.175 53.6841 149.203 53.6458 149.203 53.6075C149.146 53.4543 149.06 53.3107 148.964 53.1862C148.399 52.3151 147.853 51.4726 147.317 50.6397Z" fill="#4F429B"></path><path d="M124.771 48.9835C124.762 48.9069 124.752 48.8399 124.733 48.7729C124.57 48.141 124.12 47.6336 123.517 47.4039C123.23 47.289 122.933 47.2124 122.617 47.2028C122.474 47.1933 122.33 47.1933 122.177 47.1933H120.214C120.128 47.1933 120.032 47.2028 119.946 47.2028C119.879 47.222 119.822 47.2794 119.812 47.3464C119.803 47.4517 119.803 47.5666 119.803 47.6719C119.803 48.5814 119.803 49.4909 119.803 50.4004C119.803 51.3482 119.803 52.2864 119.803 53.2341C119.803 53.3394 119.822 53.4543 119.822 53.5596C119.831 53.6362 119.889 53.6937 119.965 53.7032H120.999C121.019 53.7032 121.038 53.6937 121.057 53.6937C121.105 53.6745 121.143 53.6362 121.162 53.5788C121.172 53.4352 121.181 53.2916 121.181 53.148C121.181 52.6789 121.181 52.2002 121.181 51.7311C121.181 51.6545 121.191 51.5875 121.21 51.5205C121.22 51.4822 121.248 51.463 121.287 51.4535C121.545 51.4248 121.804 51.4248 122.053 51.4343C122.416 51.4439 122.78 51.4056 123.134 51.3386C123.508 51.2716 123.862 51.1088 124.159 50.8695C124.532 50.5631 124.762 50.1228 124.8 49.6537C124.8 49.4143 124.8 49.2037 124.771 48.9835ZM123.374 49.7398C123.307 49.9313 123.173 50.094 122.991 50.1802C122.847 50.2568 122.684 50.2951 122.522 50.3047C122.11 50.3142 121.689 50.3238 121.277 50.2951C121.248 50.2951 121.181 50.2376 121.172 50.1802C121.162 50.1228 121.153 50.0749 121.153 50.0174C121.153 49.7685 121.153 49.5101 121.153 49.2611C121.153 48.9931 121.153 48.7155 121.153 48.4474C121.153 48.4091 121.162 48.3708 121.181 48.3421C121.2 48.3134 121.229 48.2942 121.267 48.2751C121.306 48.2655 121.334 48.2559 121.373 48.2655C121.698 48.2655 122.024 48.2655 122.349 48.2655C122.531 48.2655 122.713 48.3038 122.876 48.3804C123.096 48.4761 123.268 48.658 123.354 48.8878C123.469 49.1654 123.469 49.4622 123.374 49.7398Z" fill="#4F429B"></path><path d="M105.701 48.658C105.854 48.4282 106.094 48.2751 106.371 48.2272C106.639 48.1793 106.917 48.1889 107.185 48.2559C107.242 48.2655 107.29 48.2846 107.338 48.3038C107.577 48.3995 107.759 48.6006 107.836 48.8495C107.884 48.9835 107.913 49.1271 107.951 49.2707C107.98 49.3186 108.027 49.3569 108.075 49.3664C108.439 49.3856 108.803 49.3856 109.167 49.3664C109.205 49.3569 109.234 49.3377 109.253 49.309C109.272 49.2803 109.282 49.242 109.282 49.2037C109.262 49.0409 109.234 48.8782 109.167 48.725C108.994 48.1219 108.564 47.6241 107.999 47.356C107.635 47.1933 107.242 47.0975 106.85 47.0784C106.591 47.0688 106.342 47.0879 106.094 47.1454C105.624 47.2315 105.194 47.4613 104.859 47.7964C104.524 48.1315 104.284 48.5527 104.141 49.0026C104.054 49.2611 104.045 49.5388 103.978 49.7972C103.978 49.9408 103.968 50.1036 103.968 50.2376C103.968 50.3621 103.978 50.4961 103.968 50.6206C103.959 50.9269 103.997 51.2333 104.064 51.5396C104.121 51.8651 104.227 52.1715 104.389 52.4587C104.677 53.0139 105.165 53.4352 105.758 53.6362C106.036 53.7224 106.323 53.7702 106.611 53.7894C106.869 53.8085 107.118 53.7415 107.367 53.7128C107.491 53.6937 107.616 53.6649 107.731 53.6075C108.64 53.282 109.138 52.631 109.272 51.6736C109.272 51.6354 109.272 51.5971 109.243 51.5683C109.215 51.5396 109.186 51.5205 109.148 51.5205C108.784 51.5013 108.42 51.5013 108.056 51.5205C107.999 51.53 107.951 51.5588 107.932 51.6066C107.903 51.7311 107.874 51.8555 107.836 51.9704C107.731 52.3055 107.443 52.564 107.089 52.6118C106.859 52.6597 106.62 52.6597 106.381 52.631C106.065 52.5927 105.787 52.4108 105.634 52.1332C105.548 51.9991 105.481 51.846 105.452 51.6832C105.385 51.3769 105.347 51.0705 105.337 50.7642V50.4099C105.328 50.0366 105.356 49.6632 105.433 49.2898C105.481 49.0792 105.567 48.859 105.701 48.658Z" fill="#4F429B"></path><path d="M113.35 48.9643C113.388 48.8782 113.426 48.8016 113.474 48.725C113.637 48.4569 113.915 48.275 114.221 48.2272C114.451 48.1889 114.69 48.1985 114.929 48.2463C115.245 48.2942 115.504 48.5048 115.628 48.792C115.667 48.8782 115.695 48.9643 115.714 49.0505C115.724 49.1079 115.734 49.1558 115.743 49.2133C115.753 49.309 115.829 49.376 115.925 49.376C116.251 49.376 116.576 49.376 116.911 49.376C116.949 49.376 116.978 49.3664 117.016 49.3569C117.064 49.3377 117.093 49.2803 117.103 49.2324C117.016 48.3804 116.48 47.6432 115.695 47.2986C115.37 47.1741 115.035 47.0975 114.69 47.0784C114.384 47.0592 114.068 47.0879 113.771 47.1741C113.292 47.289 112.861 47.557 112.536 47.9304C112.21 48.3229 111.99 48.792 111.895 49.2994C111.818 49.6153 111.78 49.9408 111.799 50.2759C111.799 50.4961 111.799 50.7163 111.799 50.9269C111.799 51.0035 111.799 51.0705 111.808 51.1471C111.837 51.329 111.866 51.5013 111.914 51.6832C112 52.0949 112.182 52.4778 112.431 52.8129C112.708 53.1767 113.082 53.4543 113.512 53.6075C113.666 53.6554 113.828 53.7032 113.982 53.7224C114.307 53.7894 114.633 53.7894 114.958 53.7319C115.006 53.7224 115.063 53.7224 115.121 53.7128C115.485 53.6649 115.829 53.5309 116.126 53.3299C116.691 52.9469 117.055 52.3246 117.093 51.6353C117.083 51.5779 117.045 51.5396 116.988 51.53C116.624 51.5109 116.26 51.5205 115.896 51.53C115.82 51.5396 115.762 51.5875 115.743 51.6545C115.724 51.8364 115.667 52.0087 115.58 52.1715C115.504 52.3151 115.389 52.4395 115.236 52.5161C115.121 52.5735 115.006 52.6214 114.881 52.6406C114.661 52.6789 114.451 52.6789 114.23 52.6501C113.934 52.6214 113.675 52.4587 113.503 52.2193C113.426 52.114 113.369 51.9991 113.331 51.8747C113.254 51.6641 113.216 51.4535 113.206 51.2333C113.187 51.0514 113.187 50.8695 113.206 50.6876C113.216 50.5823 113.216 50.4674 113.206 50.3621C113.206 50.3046 113.206 50.2568 113.206 50.1993C113.177 49.96 113.187 49.7206 113.225 49.4909C113.235 49.309 113.283 49.1367 113.35 48.9643Z" fill="#4F429B"></path></svg>